<?xml version="1.0" encoding="UTF-8"?>
<svg width="94px" height="91px" viewBox="0 0 94 91" version="1.1" xmlns="http://www.w3.org/2000/svg" xmlns:xlink="http://www.w3.org/1999/xlink">
    <title>icon-crypto-loans</title>
    <defs>
        <polygon id="path-1" points="0.0171038962 0.0760469362 4.60188304 0.0760469362 4.60188304 8.72727298 0.0171038962 8.72727298"></polygon>
    </defs>
    <g id="App" stroke="none" stroke-width="1" fill="none" fill-rule="evenodd">
        <g id="rewards-copy" transform="translate(-914.000000, -391.000000)">
            <g id="Group-6" transform="translate(757.000000, 352.000000)">
                <g id="icon-crypto-loans" transform="translate(158.000000, 40.000000)">
                    <path d="M68,66.6703827 C57.2320137,73.9015747 49.199188,61.989429 49.199188,61.989429 C45.3928401,56.7846114 42.6691899,62.1635705 42.6691899,62.1635705 C40.6670983,67.0308989 37.7794248,66.5890686 36.0773233,65.7536209 C35.2190786,65.3312197 34.8140561,64.3281068 35.0816731,63.4099059 L36.3665223,58.9980801 C36.9305323,57.063094 38.320414,55.4771106 40.1649568,54.6654094 L45.0223488,52.5274981 C46.7604204,51.7625705 48.3610864,51.9367121 50.5056192,52.3749443 L63.1685064,55.3742087 L68,66.6703827 Z" id="Stroke-1" stroke="#5C627D" stroke-width="1.8" stroke-linecap="round" stroke-linejoin="round"></path>
                    <path d="M70,72.3197834 L62.0072133,75 L57,67.6386779 C57,67.6386779 62.8456561,70.1923388 67.4364061,66 L70,72.3197834 Z" id="Stroke-3" stroke="#5C627D" stroke-width="1.8" stroke-linecap="round" stroke-linejoin="round"></path>
                    <polyline id="Stroke-5" stroke="#5C627D" stroke-width="1.8" stroke-linecap="round" stroke-linejoin="round" points="18.8855255 49 28 52.8842198 19.9195904 72 11 68.48848"></polyline>
                    <polyline id="Stroke-7" stroke="#5C627D" stroke-width="1.8" stroke-linecap="round" stroke-linejoin="round" points="72.1144745 51 63 54.8842198 71.0811031 74 80 70.48848"></polyline>
                    <path d="M56.1990118,68 L63.4371289,76.7355887 C63.9911219,77.4039651 64.1489918,78.2995476 63.8535289,79.1066173 C63.1228375,81.1082617 60.4477395,81.6532777 58.9363887,80.1088334 L49,69.9605243" id="Stroke-9" stroke="#5C627D" stroke-width="1.8" stroke-linecap="round" stroke-linejoin="round"></path>
                    <path d="M45,75 L53.0119785,83.665077 C55.1708908,85.9999136 59.0010175,85.1484694 59.9569883,82.0726539 C59.9715567,82.0253116 59.9861252,81.977252 60,81.9284751" id="Stroke-11" stroke="#5C627D" stroke-width="1.8" stroke-linecap="round" stroke-linejoin="round"></path>
                    <path d="M41,79 L47.8009766,86.5215024 C48.5571944,87.3590372 49.5975281,87.9327592 50.7268705,87.9937482 C52.0100198,88.0632473 53.6349626,87.5767537 55,85.3492373" id="Stroke-13" stroke="#5C627D" stroke-width="1.8" stroke-linecap="round" stroke-linejoin="round"></path>
                    <path d="M42,54 C35.7101556,52.4714027 28,53.1501746 28,53.1501746" id="Stroke-15" stroke="#5C627D" stroke-width="1.8" stroke-linecap="round" stroke-linejoin="round"></path>
                    <path d="M21,69 C21,69 30.225,75.387913 40.2661491,85.2269764 L43.3937888,88.2301342 C44.9611025,89.7348581 47.6450311,88.9199449 47.9874224,86.7736341 C47.9916149,86.7449793 47.9965062,86.7156257 48,86.686272" id="Stroke-17" stroke="#5C627D" stroke-width="1.8" stroke-linecap="round" stroke-linejoin="round"></path>
                    <path d="M26.4103683,73 L25.5578308,74.0211984 C24.726281,75.0198761 24.8377333,76.5606043 25.8031705,77.4086261 C26.8156493,78.2978065 28.3007147,78.1704479 29.1684502,77.1197396 L30,76.111743" id="Stroke-19" stroke="#5C627D" stroke-width="1.8" stroke-linecap="round" stroke-linejoin="round"></path>
                    <path d="M34,79.3103311 L32.3017103,81.1868968 C31.3959557,82.1871983 29.8694697,82.2765586 28.8564201,81.3882908 C27.82099,80.4813508 27.7084289,78.8948726 28.6062844,77.8478903 L30.1880636,76" id="Stroke-21" stroke="#5C627D" stroke-width="1.8" stroke-linecap="round" stroke-linejoin="round"></path>
                    <path d="M33.940983,80 L32.7185198,81.3525166 C31.7039486,82.4755288 31.7720259,84.2179802 32.8707787,85.2563208 C33.9709956,86.2961469 35.6919602,86.2382137 36.7226358,85.1285708 L38,83.7537721" id="Stroke-23" stroke="#5C627D" stroke-width="1.8" stroke-linecap="round" stroke-linejoin="round"></path>
                    <path d="M42,86.4948523 L41.3416512,87.2008907 C40.3727739,88.2407746 38.7864257,88.269347 37.7831251,87.2655545 C36.7769557,86.2587543 36.7346436,84.5880224 37.6891777,83.5263332 L38.1625004,83" id="Stroke-25" stroke="#5C627D" stroke-width="1.8" stroke-linecap="round" stroke-linejoin="round"></path>
                    <polyline id="Stroke-27" stroke="#5C627D" stroke-width="1.8" stroke-linecap="round" stroke-linejoin="round" points="0 76.1238095 7.16169665 79 20 47.2186949 0 39"></polyline>
                    <polyline id="Stroke-29" stroke="#5C627D" stroke-width="1.8" stroke-linecap="round" stroke-linejoin="round" points="92 78.1238095 84.8380541 81 72 49.2186949 92 41"></polyline>
                    <path d="M4,45 L4,45 C6.26311899,49.3805963 7.24390244,54.2596427 6.84183296,59.1253315 L6.18994826,67 L14,48.856134 L4,45 Z" id="Fill-31" fill="#4468CC"></path>
                    <path d="M87,47 L87,47 C84.736881,51.3805963 83.7560976,56.2596427 84.1589061,61.1253315 L84.8107908,69 L77,50.856134 L87,47 Z" id="Fill-33" fill="#4468CC"></path>
                    <g id="Group-9-Copy" transform="translate(3.000000, 0.000000)">
                        <circle id="Oval" stroke="#5C627D" stroke-width="1.8" stroke-linecap="round" stroke-linejoin="round" cx="42.9999996" cy="20.9999996" r="20.9999996"></circle>
                        <path d="M44.3543024,26.9579265 L46.0823939,21.6190307 L49.1769947,26.9579265 L44.3543024,26.9579265 Z M43.0396757,31.0189242 L44.1619374,27.5515711 L48.649388,27.5515711 L43.0396757,31.0189242 Z M42.5000961,30.7205397 L41.4744159,27.5515711 L43.5265745,27.5515711 L42.5000961,30.7205397 Z M36.3508041,27.5515711 L40.8382547,27.5515711 L41.9605164,31.0189242 L36.3508041,27.5515711 Z M38.9177982,21.6190307 L40.646688,26.9579265 L35.8239956,26.9579265 L38.9177982,21.6190307 Z M37.7221026,17.9259364 L38.6687615,20.8472927 L36.034719,25.3917983 L37.7221026,17.9259364 Z M42.1967821,11.206817 L42.1967821,14.7585301 L39.076639,20.1427303 L38.0054617,16.8362862 L42.1967821,11.206817 Z M42.5000961,15.4373158 L45.6745164,20.9152494 L43.717343,26.9579265 L41.2820509,26.9579265 L39.3256757,20.9144683 L42.5000961,15.4373158 Z M42.8034101,11.2060359 L46.9955286,16.8362862 L45.9243513,20.1435115 L42.8034101,14.7585301 L42.8034101,11.2060359 Z M48.9654732,25.3917983 L46.3322288,20.8472927 L47.2780896,17.9259364 L48.9654732,25.3917983 Z M49.9919515,27.1883543 L47.6269006,16.7245873 C47.6189187,16.680845 47.5989638,16.6402272 47.5718252,16.6050772 L42.7443436,10.1210723 C42.7275816,10.0976389 42.7068285,10.0765489 42.6828827,10.0593645 C42.6820845,10.0585833 42.6820845,10.0585833 42.6812863,10.0585833 C42.6812863,10.0585833 42.6812863,10.0578022 42.6788917,10.0570211 C42.6541476,10.0382745 42.6246144,10.0242145 42.5934848,10.01406 C42.5591625,10.0031244 42.5256383,10.0015622 42.4897195,10 L42.4889213,10 L42.4881231,10 C42.4689665,10.0007811 42.4482134,10.0031244 42.4290567,10.0078111 C42.4290567,10.0078111 42.4274603,10.0078111 42.4274603,10.0085922 L42.4266622,10.0085922 C42.4266622,10.0085922 42.4250658,10.0085922 42.4250658,10.0085922 C42.413891,10.0117167 42.4027163,10.0148411 42.3915416,10.0187467 C42.3907434,10.0187467 42.3907434,10.0195278 42.3907434,10.0195278 L42.3899452,10.0195278 L42.3899452,10.0195278 C42.3652012,10.0289011 42.3420535,10.0413989 42.3213005,10.05624 L42.3213005,10.0570211 C42.3205023,10.0570211 42.3205023,10.0570211 42.3205023,10.0570211 L42.3197041,10.0578022 C42.2997492,10.0726434 42.2805925,10.0898278 42.2638304,10.1093556 L42.2638304,10.1093556 L42.2638304,10.1101367 C42.2638304,10.1109178 42.2630322,10.1109178 42.2630322,10.1109178 C42.2630322,10.1171667 42.262234,10.1116989 42.262234,10.11248 C42.2614358,10.1132611 42.2614358,10.1132611 42.2614358,10.1132611 C42.2582431,10.1163856 42.2566467,10.1187289 42.2550503,10.1226345 L37.4283669,16.6050772 C37.4020265,16.6402272 37.3828698,16.680845 37.3740897,16.7245873 L35.0082406,27.1883543 C35.005846,27.1969466 35.0042496,27.2055388 35.0026532,27.2149121 L35.0026532,27.2156932 C34.9978641,27.2516244 34.9994605,27.2875555 35.0082406,27.3219244 L35.0082406,27.3234866 C35.0146261,27.3484822 35.0242045,27.3734777 35.0369756,27.3969111 C35.0377738,27.3969111 35.0377738,27.3976922 35.0377738,27.3976922 L35.0377738,27.3984733 C35.0625178,27.4414344 35.0968402,27.4781466 35.1415391,27.5054855 L42.3364662,31.9523522 C42.35243,31.9625067 42.3699903,31.9710989 42.3867524,31.9781289 L42.3875506,31.9781289 C42.3875506,31.97891 42.3875506,31.97891 42.389147,31.97891 C42.4242676,31.9921889 42.4617827,32 42.5000961,32 C42.504087,32 42.508078,32 42.5096744,31.9984378 L42.5104726,31.9984378 L42.5112708,31.9984378 L42.5128672,31.9984378 L42.5136654,31.9984378 L42.5144636,31.9984378 L42.5152618,31.9984378 C42.5416022,31.9976567 42.5687408,31.99297 42.5934848,31.9851589 C42.594283,31.9843778 42.594283,31.9843778 42.5950812,31.9843778 L42.5958794,31.9843778 C42.5958794,31.9843778 42.5974758,31.9843778 42.5974758,31.9835967 C42.6198253,31.9757855 42.6421747,31.9656311 42.663726,31.9523522 L49.858653,27.5054855 C49.9041501,27.4773655 49.9392707,27.4390911 49.9632165,27.3961299 C49.9767858,27.3734777 49.9863642,27.3484822 49.9919515,27.3234866 L49.9919515,27.3219244 C50.0007317,27.2859933 50.0023281,27.249281 49.9967407,27.2133499 L49.9967407,27.2125688 C49.9959425,27.2039766 49.9935479,27.1969466 49.9919515,27.1883543 L49.9919515,27.1883543 Z" id="Fill-4" fill="#4468CC"></path>
                        <g id="Group-9" transform="translate(9.000000, 14.000000)">
                            <g id="Group-3" transform="translate(1.558442, 0.029618)" fill="#FFFFFF">
                                <path d="M3.29018201,0.152145453 C3.22472739,0.152145453 3.15927276,0.181418182 3.11972733,0.23978182 L0.289987016,4.30323643 C0.184012991,4.45978176 0.158493511,4.65250932 0.220246759,4.82850928 L3.22706512,13.1670548 C3.23700015,13.1950552 3.26310404,13.2092367 3.28940283,13.2092367 C3.31570142,13.2092367 3.34200002,13.1952365 3.35193505,13.1672369 L6.31667571,4.83141843 C6.37979242,4.65378178 6.3538836,4.45887275 6.24557174,4.30105457 L3.46005221,0.239054546 C3.42050677,0.181054544 3.35524686,0.152145453 3.29018201,0.152145453 M3.28745472,1.04287275 L5.73206532,4.60796359 C5.74122121,4.62105462 5.74336364,4.63723622 5.73790942,4.65232721 L3.28609116,11.5465088 L0.799207808,4.65014538 C0.794532483,4.6361453 0.796480535,4.62123618 0.804467549,4.60869076 L3.28745472,1.04287275" id="Fill-1"></path>
                            </g>
                            <g id="Group-6" transform="translate(5.064935, 5.120527)">
                                <mask id="mask-2" fill="white">
                                    <use xlink:href="#path-1"></use>
                                </mask>
                                <g id="Clip-5"></g>
                                <path d="M3.0856754,0.171145461 L0.0171038962,8.7273275 L4.57866219,2.05278186 C4.610026,2.00678182 4.60963631,1.94769093 4.57788307,1.90223646 L3.3519739,0.139509096 C3.28418189,0.0416909107 3.12522087,0.0606000025 3.0856754,0.171145461" id="Fill-4" fill="#4468CC" mask="url(#mask-2)"></path>
                            </g>
                            <path d="M1.51638318,5.25509115 L4.58475987,13.8114554 L0.0233961038,7.1367277 C-0.00796753254,7.09072766 -0.00777272759,7.03181861 0.0239805192,6.98618224 L1.24988967,5.22345478 C1.31787671,5.12581841 1.47683773,5.14472751 1.51638318,5.25509115" id="Fill-7" fill="#4468CC"></path>
                        </g>
                        <path d="M71.9999996,6.99999964 C79.7319861,6.99999964 85.9999996,13.2680131 85.9999996,20.9999996 C85.9999996,28.7319861 79.7319861,34.9999996 71.9999996,34.9999996 C67.9398897,34.9999996 64.2834497,33.2716829 61.7262593,30.5106288 C63.1808451,27.6554303 64,24.423377 64,21 C64,17.5766227 63.1808451,14.3445694 61.7278523,11.4891569 C64.2834497,8.72831642 67.9398897,6.99999964 71.9999996,6.99999964 Z" id="Combined-Shape" stroke="#5C627D" stroke-width="1.8" stroke-linecap="round" stroke-linejoin="round"></path>
                        <path d="M10.2728047,6.99999964 C18.0047912,6.99999964 24.2728047,13.2680131 24.2728047,20.9999996 C24.2728047,28.7319861 18.0047912,34.9999996 10.2728047,34.9999996 C6.21269468,34.9999996 2.5562547,33.2716829 -0.000935720634,30.5106288 C1.45365013,27.6554303 2.27280502,24.423377 2.27280502,21 C2.27280502,17.5766227 1.45365013,14.3445694 0.000657358223,11.4891569 C2.5562547,8.72831642 6.21269468,6.99999964 10.2728047,6.99999964 Z" id="Combined-Shape-Copy" stroke="#5C627D" stroke-width="1.8" stroke-linecap="round" stroke-linejoin="round" transform="translate(12.136402, 21.000000) scale(-1, 1) translate(-12.136402, -21.000000) "></path>
                    </g>
                    <g id="liquidapps_logo_white.3b1d829c" transform="translate(69.000000, 15.000000)" fill="#FFFFFF" fill-rule="nonzero">
                        <path d="M7.32074534,6.02385093 C7.32074534,5.2750763 6.71374357,4.66807453 5.96496894,4.66807453 C5.21619432,4.66807453 4.60919255,5.2750763 4.60919255,6.02385093 L4.60919255,6.02385093 C4.61001211,6.7712925 5.21529271,7.37723971 5.96273292,7.37888199 L7.31776398,7.37888199 L7.31776398,6.02534161 L7.31776398,6.02534161 L7.32074534,6.02385093 Z" id="Path"></path>
                        <path d="M11.9344104,11.9873292 L11.9344104,6.02981366 C11.9351903,4.00025515 10.9015429,2.11024542 9.19229814,1.01590062 L9.18409938,3.12074534 L9.17440994,5.64670807 L9.19751553,9.24670807 L6.17813665,9.24670807 C6.10807453,9.25118012 6.03726708,9.25490683 5.96571429,9.25490683 C4.6436126,9.25501389 3.4549643,8.44928305 2.96543064,7.22115045 C2.47589699,5.99301786 2.78435368,4.59054096 3.74401045,3.68113909 C4.70366722,2.77173723 6.12069319,2.53909081 7.32074534,3.09391304 L7.33192547,0.229565217 C5.10068306,-0.292270371 2.76791147,0.512026113 1.33239134,2.29809358 C-0.103128794,4.08416105 -0.386875785,6.53532481 0.602637187,8.60211438 C1.59215016,10.6689039 3.67947971,11.9848718 5.97093168,11.9865839 L11.9336646,11.9865839 L11.9344104,11.9873292 Z" id="Path"></path>
                    </g>
                </g>
            </g>
        </g>
    </g>
</svg>