<?xml version="1.0" encoding="UTF-8"?>
<svg width="94px" height="52px" viewBox="0 0 94 52" version="1.1" xmlns="http://www.w3.org/2000/svg" xmlns:xlink="http://www.w3.org/1999/xlink">
    <title>icon-borrow</title>
    <g id="App" stroke="none" stroke-width="1" fill="none" fill-rule="evenodd">
        <g id="Landing-Page" transform="translate(-946.000000, -458.000000)">
            <g id="icon-borrow" transform="translate(947.000000, 459.000000)">
                <path d="M68,27.6703827 C57.2320137,34.9015747 49.199188,22.989429 49.199188,22.989429 C45.3928401,17.7846114 42.6691899,23.1635705 42.6691899,23.1635705 C40.6670983,28.0308989 37.7794248,27.5890686 36.0773233,26.7536209 C35.2190786,26.3312197 34.8140561,25.3281068 35.0816731,24.4099059 L36.3665223,19.9980801 C36.9305323,18.063094 38.320414,16.4771106 40.1649568,15.6654094 L45.0223488,13.5274981 C46.7604204,12.7625705 48.3610864,12.9367121 50.5056192,13.3749443 L63.1685064,16.3742087 L68,27.6703827 Z" id="Stroke-1" stroke="#5C627D" stroke-width="1.8" stroke-linecap="round" stroke-linejoin="round"></path>
                <path d="M70,33.3197834 L62.0072133,36 L57,28.6386779 C57,28.6386779 62.8456561,31.1923388 67.4364061,27 L70,33.3197834 Z" id="Stroke-3" stroke="#5C627D" stroke-width="1.8" stroke-linecap="round" stroke-linejoin="round"></path>
                <polyline id="Stroke-5" stroke="#5C627D" stroke-width="1.8" stroke-linecap="round" stroke-linejoin="round" points="18.8855255 10 28 13.8842198 19.9195904 33 11 29.48848"></polyline>
                <polyline id="Stroke-7" stroke="#5C627D" stroke-width="1.8" stroke-linecap="round" stroke-linejoin="round" points="72.1144745 12 63 15.8842198 71.0811031 35 80 31.48848"></polyline>
                <path d="M56.1990118,29 L63.4371289,37.7355887 C63.9911219,38.4039651 64.1489918,39.2995476 63.8535289,40.1066173 C63.1228375,42.1082617 60.4477395,42.6532777 58.9363887,41.1088334 L49,30.9605243" id="Stroke-9" stroke="#5C627D" stroke-width="1.8" stroke-linecap="round" stroke-linejoin="round"></path>
                <path d="M45,36 L53.0119785,44.665077 C55.1708908,46.9999136 59.0010175,46.1484694 59.9569883,43.0726539 C59.9715567,43.0253116 59.9861252,42.977252 60,42.9284751" id="Stroke-11" stroke="#5C627D" stroke-width="1.8" stroke-linecap="round" stroke-linejoin="round"></path>
                <path d="M41,40 L47.8009766,47.5215024 C48.5571944,48.3590372 49.5975281,48.9327592 50.7268705,48.9937482 C52.0100198,49.0632473 53.6349626,48.5767537 55,46.3492373" id="Stroke-13" stroke="#5C627D" stroke-width="1.8" stroke-linecap="round" stroke-linejoin="round"></path>
                <path d="M42,15 C35.7101556,13.4714027 28,14.1501746 28,14.1501746" id="Stroke-15" stroke="#5C627D" stroke-width="1.8" stroke-linecap="round" stroke-linejoin="round"></path>
                <path d="M21,30 C21,30 30.225,36.387913 40.2661491,46.2269764 L43.3937888,49.2301342 C44.9611025,50.7348581 47.6450311,49.9199449 47.9874224,47.7736341 C47.9916149,47.7449793 47.9965062,47.7156257 48,47.686272" id="Stroke-17" stroke="#5C627D" stroke-width="1.8" stroke-linecap="round" stroke-linejoin="round"></path>
                <path d="M26.4103683,34 L25.5578308,35.0211984 C24.726281,36.0198761 24.8377333,37.5606043 25.8031705,38.4086261 C26.8156493,39.2978065 28.3007147,39.1704479 29.1684502,38.1197396 L30,37.111743" id="Stroke-19" stroke="#5C627D" stroke-width="1.8" stroke-linecap="round" stroke-linejoin="round"></path>
                <path d="M34,40.3103311 L32.3017103,42.1868968 C31.3959557,43.1871983 29.8694697,43.2765586 28.8564201,42.3882908 C27.82099,41.4813508 27.7084289,39.8948726 28.6062844,38.8478903 L30.1880636,37" id="Stroke-21" stroke="#5C627D" stroke-width="1.8" stroke-linecap="round" stroke-linejoin="round"></path>
                <path d="M33.940983,41 L32.7185198,42.3525166 C31.7039486,43.4755288 31.7720259,45.2179802 32.8707787,46.2563208 C33.9709956,47.2961469 35.6919602,47.2382137 36.7226358,46.1285708 L38,44.7537721" id="Stroke-23" stroke="#5C627D" stroke-width="1.8" stroke-linecap="round" stroke-linejoin="round"></path>
                <path d="M42,47.4948523 L41.3416512,48.2008907 C40.3727739,49.2407746 38.7864257,49.269347 37.7831251,48.2655545 C36.7769557,47.2587543 36.7346436,45.5880224 37.6891777,44.5263332 L38.1625004,44" id="Stroke-25" stroke="#5C627D" stroke-width="1.8" stroke-linecap="round" stroke-linejoin="round"></path>
                <polyline id="Stroke-27" stroke="#5C627D" stroke-width="1.8" stroke-linecap="round" stroke-linejoin="round" points="0 37.1238095 7.16169665 40 20 8.21869489 0 0"></polyline>
                <polyline id="Stroke-29" stroke="#5C627D" stroke-width="1.8" stroke-linecap="round" stroke-linejoin="round" points="92 39.1238095 84.8380541 42 72 10.2186949 92 2"></polyline>
                <path d="M4,6 L4,6 C6.26311899,10.3805963 7.24390244,15.2596427 6.84183296,20.1253315 L6.18994826,28 L14,9.85613396 L4,6 Z" id="Fill-31" fill="#4468CC"></path>
                <path d="M87,8 L87,8 C84.736881,12.3805963 83.7560976,17.2596427 84.1589061,22.1253315 L84.8107908,30 L77,11.856134 L87,8 Z" id="Fill-33" fill="#4468CC"></path>
            </g>
        </g>
    </g>
</svg>