<?xml version="1.0" encoding="UTF-8"?>
<svg width="82px" height="87px" viewBox="0 0 82 87" version="1.1" xmlns="http://www.w3.org/2000/svg" xmlns:xlink="http://www.w3.org/1999/xlink">
    <title>icon-earn</title>
    <g id="App" stroke="none" stroke-width="1" fill="none" fill-rule="evenodd">
        <g id="Landing-Page" transform="translate(-399.000000, -421.000000)">
            <g id="icon-earn" transform="translate(400.000000, 422.000000)">
                <g id="Group-29" transform="translate(0.000000, 50.000000)">
                    <path d="M44.1646536,16.5 L47.8804855,16.5 C51.4270006,16.5 54.8925116,15.4545434 57.8275376,13.498798 L60.5426955,11.6895839 C60.9897404,11.3917364 61.1450489,10.7882663 60.8460039,10.3468779 C60.4111401,9.70572834 59.8587291,9.24938773 59.2904827,8.92402824 C57.9627474,8.16385929 56.335967,8.2296489 54.954635,8.89232962 C49.9250761,11.3044157 45.4424466,9.26912461 45.4424466,9.26912461 C43.812621,8.26493605 42.2534456,7.48802065 40.7777104,6.89352188 C34.5671978,4.39232082 27.467468,5.32593508 22,9.14950715" id="Stroke-1" stroke="#5C627D" stroke-width="1.8" stroke-linecap="round" stroke-linejoin="round"></path>
                    <path d="M22,22.5 C22,22.5 30.5359913,20.8838681 45.4660855,21.7124525 C49.4063926,21.9315175 53.331847,21.0709484 56.82224,19.2755815 L79.525885,7.59573976 C80.0209763,7.34046575 80.1515566,6.71525566 79.8068493,6.28436763 C78.9955186,5.26990994 77.1451152,3.86439421 73.4443084,4.81608949 C73.0240998,4.92411324 72.6175061,5.07800183 72.21772,5.24456359 L60.7947281,9.99398773" id="Stroke-3" stroke="#5C627D" stroke-width="1.8" stroke-linecap="round" stroke-linejoin="round"></path>
                    <polyline id="Stroke-5" stroke="#5C627D" stroke-width="1.8" stroke-linecap="round" stroke-linejoin="round" points="14 28.5 22 28.5 22 6.5 14 6.5"></polyline>
                    <polyline id="Stroke-7" stroke="#5C627D" stroke-width="1.8" stroke-linecap="round" stroke-linejoin="round" points="0 34.5 13 34.5 13 0.5 0 0.5"></polyline>
                    <polygon id="Fill-27" fill="#6DE4F0" points="6 30.5 10 30.5 10 4.5 6 4.5"></polygon>
                </g>
                <g id="Group-9" transform="translate(27.000000, 26.000000)">
                    <circle id="Oval" stroke="#5C627D" stroke-width="1.8" stroke-linecap="round" stroke-linejoin="round" cx="10" cy="10" r="10"></circle>
                    <path d="M9.80278043,2.29640003 L6.89778017,6.76620043 C6.78898016,6.93840044 6.76258016,7.15040046 6.82598016,7.34380048 L9.91318044,16.5164013 C9.93318044,16.5782013 10.0207804,16.5782013 10.0411805,16.5166013 L13.0849807,7.34720048 C13.1499807,7.15160046 13.1231807,6.93740044 13.0121807,6.76380043 L10.1523805,2.29540003 C10.0705805,2.16760001 9.88378044,2.16820002 9.80278043,2.29640003" id="Fill-1" fill="#5C627D"></path>
                    <path d="M13.3678207,7.82080052 L10.2176205,17.2326014 L14.9006209,9.89060071 C14.9328209,9.8400007 14.9326209,9.7750007 14.9000209,9.72500069 L13.6414208,7.78600052 C13.5718208,7.67840051 13.4086208,7.69920051 13.3678207,7.82080052" id="Fill-4" fill="#6DE4F0"></path>
                    <path d="M6.55688014,7.78058052 L9.70708042,17.1925814 L5.02408,9.8505807 C4.99188,9.7999807 4.99208,9.73498069 5.02468,9.68478069 L6.28328011,7.74578051 C6.35288012,7.6383805 6.51608014,7.65918051 6.55688014,7.78058052" id="Fill-7" fill="#6DE4F0"></path>
                </g>
                <g id="Group-9-Copy" transform="translate(51.000000, 16.000000)">
                    <circle id="Oval" stroke="#5C627D" stroke-width="1.8" stroke-linecap="round" stroke-linejoin="round" cx="10" cy="10" r="10"></circle>
                    <path d="M9.80278043,2.29640003 L6.89778017,6.76620043 C6.78898016,6.93840044 6.76258016,7.15040046 6.82598016,7.34380048 L9.91318044,16.5164013 C9.93318044,16.5782013 10.0207804,16.5782013 10.0411805,16.5166013 L13.0849807,7.34720048 C13.1499807,7.15160046 13.1231807,6.93740044 13.0121807,6.76380043 L10.1523805,2.29540003 C10.0705805,2.16760001 9.88378044,2.16820002 9.80278043,2.29640003" id="Fill-1" fill="#5C627D"></path>
                    <path d="M13.3678207,7.82080052 L10.2176205,17.2326014 L14.9006209,9.89060071 C14.9328209,9.8400007 14.9326209,9.7750007 14.9000209,9.72500069 L13.6414208,7.78600052 C13.5718208,7.67840051 13.4086208,7.69920051 13.3678207,7.82080052" id="Fill-4" fill="#6DE4F0"></path>
                    <path d="M6.55688014,7.78058052 L9.70708042,17.1925814 L5.02408,9.8505807 C4.99188,9.7999807 4.99208,9.73498069 5.02468,9.68478069 L6.28328011,7.74578051 C6.35288012,7.6383805 6.51608014,7.65918051 6.55688014,7.78058052" id="Fill-7" fill="#6DE4F0"></path>
                </g>
                <g id="Group-9-Copy-2" transform="translate(34.000000, 0.000000)">
                    <circle id="Oval" stroke="#5C627D" stroke-width="1.8" stroke-linecap="round" stroke-linejoin="round" cx="10" cy="10" r="10"></circle>
                    <path d="M9.80278043,2.29640003 L6.89778017,6.76620043 C6.78898016,6.93840044 6.76258016,7.15040046 6.82598016,7.34380048 L9.91318044,16.5164013 C9.93318044,16.5782013 10.0207804,16.5782013 10.0411805,16.5166013 L13.0849807,7.34720048 C13.1499807,7.15160046 13.1231807,6.93740044 13.0121807,6.76380043 L10.1523805,2.29540003 C10.0705805,2.16760001 9.88378044,2.16820002 9.80278043,2.29640003" id="Fill-1" fill="#5C627D"></path>
                    <path d="M13.3678207,7.82080052 L10.2176205,17.2326014 L14.9006209,9.89060071 C14.9328209,9.8400007 14.9326209,9.7750007 14.9000209,9.72500069 L13.6414208,7.78600052 C13.5718208,7.67840051 13.4086208,7.69920051 13.3678207,7.82080052" id="Fill-4" fill="#6DE4F0"></path>
                    <path d="M6.55688014,7.78058052 L9.70708042,17.1925814 L5.02408,9.8505807 C4.99188,9.7999807 4.99208,9.73498069 5.02468,9.68478069 L6.28328011,7.74578051 C6.35288012,7.6383805 6.51608014,7.65918051 6.55688014,7.78058052" id="Fill-7" fill="#6DE4F0"></path>
                </g>
            </g>
        </g>
    </g>
</svg>