<?xml version="1.0" encoding="UTF-8"?>
<svg width="102px" height="81px" viewBox="0 0 102 81" version="1.1" xmlns="http://www.w3.org/2000/svg" xmlns:xlink="http://www.w3.org/1999/xlink">
    <title>icon-saving</title>
    <g id="App" stroke="none" stroke-width="1" fill="none" fill-rule="evenodd">
        <g id="rewards" transform="translate(-906.000000, -382.000000)">
            <g id="Group-6" transform="translate(757.000000, 352.000000)">
                <g id="icon-saving" transform="translate(150.000000, 32.000000)">
                    <path d="M29.0181711,21.6851482 C18.7558882,24.7446519 9.09675421,34.3891995 9.09675421,44.5544827 C9.09675421,49.0252235 9.69479784,52.8570787 11.6457329,55.9442966 C13.7950433,59.3451228 15.2011752,63.1704141 16.0209326,67.1080209 C16.4599841,69.2172187 16.1186617,71.6093932 16.9821783,74.0774172 C17.7574471,76.2945546 19.8411186,77.7896637 22.1902632,77.7896637 L25.9900282,77.7896637 C28.5193152,77.7896637 30.3601227,75.3588351 29.6388237,72.9352997 C28.6133977,69.4892556 28.5171273,64.5349746 28.7264425,59.1518526" id="Stroke-3" stroke="#5C627D" stroke-width="2.41237113" stroke-linecap="round" stroke-linejoin="round"></path>
                    <path d="M68.5564403,69.5220022 C95.9986206,64.7143148 98.7831701,51.4807761 98.8233368,46.4914877 C98.8313053,45.4244903 97.9444504,44.5551391 96.877453,44.5551391 L94.8689016,44.5551391 C91.4476544,33.5737451 79.1316022,28.0075634 79.1316022,28.0075634 C79.4452104,24.9181575 81.6550546,21.251129 83.0042994,19.2637279 C83.4032382,18.6751654 82.9211567,17.8889568 82.2159028,17.9757461 C77.0902313,18.6058799 73.0045722,19.790298 69.6270843,22.5165018 C66.108108,20.9623177 60.0379651,18.7502855 54.7992488,18.4877298" id="Stroke-5" stroke="#5C627D" stroke-width="2.41237113" stroke-linecap="round" stroke-linejoin="round"></path>
                    <path d="M28.8639926,68.6786877 C36.3016133,71.3202902 46.6907981,71.2940346 46.9132412,71.2918467 C49.0238976,71.2728843 51.0484941,71.2189145 52.9921359,71.1328546 C54.6848912,71.0577345 56.2084438,72.113792 56.7379312,73.7241339 C56.8991112,74.2156966 57.0821709,74.745184 57.2827344,75.2885285 C57.8392067,76.7945774 59.2839926,77.7893719 60.8892292,77.7893719 L65.7669314,77.7893719 C68.3618573,77.7893719 70.2026648,75.2812353 69.4427118,72.7993542 C68.8993673,71.022727 67.662438,63.6164671 67.8899863,58.7606445" id="Stroke-7" stroke="#5C627D" stroke-width="2.41237113" stroke-linecap="round" stroke-linejoin="round"></path>
                    <path d="M83.9045738,39.5670905 C83.9045738,39.1542945 83.5690859,38.8188066 83.1555606,38.8188066 C82.7420353,38.8188066 82.4065474,39.1542945 82.4065474,39.5670905 C82.4065474,39.9806158 82.7420353,40.3161037 83.1555606,40.3161037 C83.5690859,40.3161037 83.9045738,39.9806158 83.9045738,39.5670905 Z" id="Stroke-9" stroke="#5C627D" stroke-width="2.41237113" stroke-linecap="round" stroke-linejoin="round"></path>
                    <path d="M77.7238658,40.4374628 C77.7238658,42.9565392 79.765966,44.9986395 82.2857718,44.9986395" id="Stroke-11" stroke="#5C627D" stroke-width="2.41237113" stroke-linecap="round" stroke-linejoin="round"></path>
                    <path d="M94.8686099,44.5548473 C94.8686099,44.5548473 95.064068,47.6668622 93.6469964,50.5010056" id="Stroke-13" stroke="#5C627D" stroke-width="2.41237113" stroke-linecap="round" stroke-linejoin="round"></path>
                    <path d="M27.1621208,28.9157146 C27.1621208,28.9157146 39.83627,20.6721936 57.9197967,25.9831128" id="Stroke-15" stroke="#5C627D" stroke-width="2.41237113" stroke-linecap="round" stroke-linejoin="round"></path>
                    <path d="M69.6273031,22.5163559 C69.6273031,22.5163559 67.4991429,24.3542461 66.0660262,26.765383" id="Stroke-21" stroke="#5C627D" stroke-width="2.41237113" stroke-linecap="round" stroke-linejoin="round"></path>
                    <path d="M9.1466398,42.3248739 C7.3087496,44.5004399 4.05524637,44.7739355 1.87968032,42.9367746 C0.138789883,41.4664625 -0.16752515,38.9707243 1.30278701,37.2305632 C2.47918259,35.8375591 4.37614783,35.6741911 5.72320465,36.9023685 C6.70049547,37.7943287 6.72456308,39.3827909 5.93033196,40.2258866" id="Stroke-23" stroke="#5C627D" stroke-width="2.41237113" stroke-linecap="round" stroke-linejoin="round"></path>
                    <path d="M29.5292067,36.4375719 C28.9253285,36.4375719 28.3345781,36.1378208 27.9874211,35.5901003 C27.4484525,34.7397114 27.701527,33.6129097 28.5519159,33.0739411 C29.2491473,32.6319723 35.654778,28.7570871 45.6997231,28.7570871 C49.5075107,28.7570871 53.3765613,29.3259579 57.200394,30.449113 C58.166745,30.7328191 58.7195707,31.7458467 58.4365939,32.712927 C58.1521585,33.6785486 57.1398603,34.2313743 56.17278,33.9483976 C52.6829766,32.9229716 49.158895,32.4036947 45.6997231,32.4036947 C36.5292345,32.4036947 30.7449857,36.0007083 30.5035802,36.1538658 C30.2001825,36.3464067 29.863236,36.4375719 29.5292067,36.4375719" id="Fill-17" fill="#6DE4F0"></path>
                    <g id="Group-9" transform="translate(28.116279, 0.000000)">
                        <path d="M19.8171017,23.2132211 C23.1834479,20.9296266 25.3953488,17.0719591 25.3953488,12.6976744 C25.3953488,5.68494248 19.7104064,0 12.6976744,0 C5.68494248,0 0,5.68494248 0,12.6976744 C0,18.1329964 3.41509004,22.7706815 8.21657427,24.5820336" id="Oval" stroke="#5C627D" stroke-width="2.41237113" stroke-linecap="round" stroke-linejoin="round"></path>
                        <path d="M12.5188009,6.61766514 L9.88403318,10.6716702 C9.7853541,10.8278516 9.76140991,11.0201307 9.81891224,11.19554 L12.6189311,19.5148756 C12.6370706,19.5709268 12.7165218,19.5709268 12.7350241,19.515057 L15.4956802,11.1986237 C15.5546337,11.021219 15.5303267,10.8269446 15.4296523,10.6694934 L12.83588,6.61675816 C12.7616892,6.50084653 12.592266,6.50139071 12.5188009,6.61766514" id="Fill-1" fill="#5C627D"></path>
                        <path d="M15.7522095,11.6281679 L12.8950511,20.1644524 L17.1424236,13.5054285 C17.1716282,13.4595355 17.1714469,13.400582 17.1418794,13.3552332 L16.0003584,11.5966051 C15.9372328,11.4990144 15.7892142,11.5178795 15.7522095,11.6281679" id="Fill-4" fill="#6DE4F0"></path>
                        <path d="M9.57484478,11.5916893 L12.4320032,20.1281552 L8.1846307,13.4691313 C8.15542605,13.4232383 8.15560744,13.3642848 8.18517489,13.3187546 L9.32669592,11.5601265 C9.38982151,11.4627172 9.53784012,11.4815823 9.57484478,11.5916893" id="Fill-7" fill="#6DE4F0"></path>
                    </g>
                </g>
            </g>
        </g>
    </g>
</svg>