<?xml version="1.0" encoding="UTF-8"?>
<svg width="73px" height="80px" viewBox="0 0 73 80" version="1.1" xmlns="http://www.w3.org/2000/svg" xmlns:xlink="http://www.w3.org/1999/xlink">
    <title>icon-become-lender</title>
    <g id="App" stroke="none" stroke-width="1" fill="none" fill-rule="evenodd">
        <g id="rewards" transform="translate(-444.000000, -391.000000)">
            <g id="Group-3" transform="translate(276.000000, 352.000000)">
                <g id="icon-become-lender" transform="translate(169.000000, 40.000000)">
                    <path d="M64.9339161,52.2856769 C69.4615159,48.9094771 70.7371158,44.1064774 70.746778,39.7894776 C70.7587158,34.8256779 69.0337159,30.0130782 66.0715161,26.0296784 L56.0461167,9.81107942 L47.5345172,9.81107942 L39.2341177,9.81107942 L28.9969183,26.0296784 C26.0353184,30.0130782 24.3103186,34.8256779 24.3216624,39.7894776 C24.3331185,44.5636773 25.8919185,49.932477 31.6849181,53.3080768" id="Stroke-1" stroke="#5C627D" stroke-width="1.79999989" stroke-linecap="round" stroke-linejoin="round"></path>
                    <path d="M56.0464167,9.81131942 L62.2624163,3.78611977 L60.0316164,1.55471991 C58.3588165,-0.118079993 55.6468167,-0.118079993 53.9740168,1.55471991 L52.1728169,3.3559198 L51.3814169,2.56391985 C49.3150171,0.49811997 45.9652173,0.49811997 43.8994174,2.56391985 L43.1080174,3.3559198 L41.3068175,1.55471991 C39.6340176,-0.118079993 36.9220178,-0.118079993 35.2492179,1.55471991 L33.017818,3.78611977 L39.2338177,9.81131942" id="Stroke-3" stroke="#5C627D" stroke-width="1.79999989" stroke-linecap="round" stroke-linejoin="round"></path>
                    <path d="M39.5481576,62.9561362 L42.7875574,62.9561362 C45.8811573,62.9561362 48.9027571,62.0279363 51.4617569,60.2909364 L53.8305568,58.6841365 C54.2199568,58.4195365 54.3555568,57.8843365 54.0939568,57.4919366 C53.7147568,56.9225366 53.2335568,56.5175366 52.7379569,56.2289366 C51.5805569,55.5533367 50.161557,55.6121367 48.9573571,56.2001367 C44.5707573,58.3427365 40.6617576,56.5349366 40.6617576,56.5349366 C39.2409577,55.6433367 37.8813577,54.9533367 36.5943578,54.4253368 C31.1787581,52.2047369 24.9873585,53.0333368 20.2191588,56.4287366" id="Stroke-5" stroke="#5C627D" stroke-width="1.79999989" stroke-linecap="round" stroke-linejoin="round"></path>
                    <path d="M20.2192188,67.813016 C20.2192188,67.813016 27.5452184,66.390416 40.3582176,67.120616 C43.7398174,67.313216 47.1088172,66.555416 50.104617,64.9756161 L69.5884159,54.6964167 C70.0138158,54.4720168 70.1254158,53.9212168 69.8302158,53.5426168 C69.1330159,52.6492169 67.546016,51.4126169 64.3696162,52.2502169 C64.0084162,52.3450169 63.6598162,52.4806169 63.3166162,52.6270169 L53.5132168,56.8072166" id="Stroke-7" stroke="#5C627D" stroke-width="1.79999989" stroke-linecap="round" stroke-linejoin="round"></path>
                    <polyline id="Stroke-9" stroke="#5C627D" stroke-width="1.79999989" stroke-linecap="round" stroke-linejoin="round" points="12.8147392 72.5060357 20.0225388 72.5060357 20.0225388 53.9108368 12.8147392 53.9108368"></polyline>
                    <polyline id="Stroke-11" stroke="#5C627D" stroke-width="1.79999989" stroke-linecap="round" stroke-linejoin="round" points="0.299699982 77.4384554 12.8144992 77.4384554 12.8144992 48.4740571 0.299699982 48.4740571"></polyline>
                    <path d="M47.5344572,13.4113192 L41.2188575,13.4113192 L34.193458,24.5425185 L39.4146577,21.9049187 C44.6082573,19.2817189 50.718657,19.1863189 55.9914567,21.6463187 L60.4014564,23.7037186 L54.0396568,13.4113192 L47.5344572,13.4113192 Z" id="Fill-19" fill="#6DE4F0"></path>
                    <path d="M47.4648314,27.2596623 C47.3775585,27.2596623 47.2902857,27.3014805 47.2375585,27.3848571 L43.4645714,33.1897923 C43.3232727,33.4134285 43.2892467,33.6887536 43.3715844,33.9401821 L47.3806755,45.85239 C47.3939222,45.8923905 47.4287274,45.9126498 47.4637925,45.9126498 C47.4988573,45.9126498 47.5339221,45.8926496 47.5471688,45.8526502 L51.5001563,33.944338 C51.5843119,33.6905714 51.5497668,33.4121299 51.405351,33.1866754 L47.691325,27.3838182 C47.6385977,27.300961 47.5515845,27.2596623 47.4648314,27.2596623 M47.461195,28.5321299 L50.7206758,33.6251168 C50.7328836,33.6438183 50.7357402,33.6669349 50.7284679,33.6884934 L47.4593769,43.5373243 L44.1435324,33.6853765 C44.1372987,33.6653764 44.1398961,33.6440777 44.1505454,33.6261556 L47.461195,28.5321299" id="Fill-1" fill="#5C627D"></path>
                    <path d="M51.8674806,34.5595324 L47.776052,46.7826496 L53.8581297,37.2475843 C53.8999481,37.18187 53.8994285,37.0974545 53.8570909,37.0325195 L52.2225453,34.5143375 C52.132156,34.3745973 51.9202079,34.4016103 51.8674806,34.5595324" id="Fill-4" fill="#6DE4F0"></path>
                    <path d="M43.0218442,34.5072731 L47.1130132,46.7306506 L41.0311948,37.1953253 C40.9893766,37.1296109 40.9896364,37.0454552 41.031974,36.9802603 L42.6665196,34.4620783 C42.7571689,34.3225977 42.969117,34.3496107 43.0218442,34.5072731" id="Fill-7" fill="#6DE4F0"></path>
                </g>
            </g>
        </g>
    </g>
</svg>