<?xml version="1.0" encoding="UTF-8"?>
<svg width="94px" height="91px" viewBox="0 0 94 91" version="1.1" xmlns="http://www.w3.org/2000/svg" xmlns:xlink="http://www.w3.org/1999/xlink">
    <title>icon-low-vol-loan</title>
    <g id="App" stroke="none" stroke-width="1" fill="none" fill-rule="evenodd">
        <g id="rewards-copy" transform="translate(-433.000000, -391.000000)">
            <g id="Group-3" transform="translate(276.000000, 352.000000)">
                <g id="icon-low-vol-loan" transform="translate(158.000000, 40.000000)">
                    <path d="M68,66.6703827 C57.2320137,73.9015747 49.199188,61.989429 49.199188,61.989429 C45.3928401,56.7846114 42.6691899,62.1635705 42.6691899,62.1635705 C40.6670983,67.0308989 37.7794248,66.5890686 36.0773233,65.7536209 C35.2190786,65.3312197 34.8140561,64.3281068 35.0816731,63.4099059 L36.3665223,58.9980801 C36.9305323,57.063094 38.320414,55.4771106 40.1649568,54.6654094 L45.0223488,52.5274981 C46.7604204,51.7625705 48.3610864,51.9367121 50.5056192,52.3749443 L63.1685064,55.3742087 L68,66.6703827 Z" id="Stroke-1" stroke="#5C627D" stroke-width="1.8" stroke-linecap="round" stroke-linejoin="round"></path>
                    <path d="M70,72.3197834 L62.0072133,75 L57,67.6386779 C57,67.6386779 62.8456561,70.1923388 67.4364061,66 L70,72.3197834 Z" id="Stroke-3" stroke="#5C627D" stroke-width="1.8" stroke-linecap="round" stroke-linejoin="round"></path>
                    <polyline id="Stroke-5" stroke="#5C627D" stroke-width="1.8" stroke-linecap="round" stroke-linejoin="round" points="18.8855255 49 28 52.8842198 19.9195904 72 11 68.48848"></polyline>
                    <polyline id="Stroke-7" stroke="#5C627D" stroke-width="1.8" stroke-linecap="round" stroke-linejoin="round" points="72.1144745 51 63 54.8842198 71.0811031 74 80 70.48848"></polyline>
                    <path d="M56.1990118,68 L63.4371289,76.7355887 C63.9911219,77.4039651 64.1489918,78.2995476 63.8535289,79.1066173 C63.1228375,81.1082617 60.4477395,81.6532777 58.9363887,80.1088334 L49,69.9605243" id="Stroke-9" stroke="#5C627D" stroke-width="1.8" stroke-linecap="round" stroke-linejoin="round"></path>
                    <path d="M45,75 L53.0119785,83.665077 C55.1708908,85.9999136 59.0010175,85.1484694 59.9569883,82.0726539 C59.9715567,82.0253116 59.9861252,81.977252 60,81.9284751" id="Stroke-11" stroke="#5C627D" stroke-width="1.8" stroke-linecap="round" stroke-linejoin="round"></path>
                    <path d="M41,79 L47.8009766,86.5215024 C48.5571944,87.3590372 49.5975281,87.9327592 50.7268705,87.9937482 C52.0100198,88.0632473 53.6349626,87.5767537 55,85.3492373" id="Stroke-13" stroke="#5C627D" stroke-width="1.8" stroke-linecap="round" stroke-linejoin="round"></path>
                    <path d="M42,54 C35.7101556,52.4714027 28,53.1501746 28,53.1501746" id="Stroke-15" stroke="#5C627D" stroke-width="1.8" stroke-linecap="round" stroke-linejoin="round"></path>
                    <path d="M21,69 C21,69 30.225,75.387913 40.2661491,85.2269764 L43.3937888,88.2301342 C44.9611025,89.7348581 47.6450311,88.9199449 47.9874224,86.7736341 C47.9916149,86.7449793 47.9965062,86.7156257 48,86.686272" id="Stroke-17" stroke="#5C627D" stroke-width="1.8" stroke-linecap="round" stroke-linejoin="round"></path>
                    <path d="M26.4103683,73 L25.5578308,74.0211984 C24.726281,75.0198761 24.8377333,76.5606043 25.8031705,77.4086261 C26.8156493,78.2978065 28.3007147,78.1704479 29.1684502,77.1197396 L30,76.111743" id="Stroke-19" stroke="#5C627D" stroke-width="1.8" stroke-linecap="round" stroke-linejoin="round"></path>
                    <path d="M34,79.3103311 L32.3017103,81.1868968 C31.3959557,82.1871983 29.8694697,82.2765586 28.8564201,81.3882908 C27.82099,80.4813508 27.7084289,78.8948726 28.6062844,77.8478903 L30.1880636,76" id="Stroke-21" stroke="#5C627D" stroke-width="1.8" stroke-linecap="round" stroke-linejoin="round"></path>
                    <path d="M33.940983,80 L32.7185198,81.3525166 C31.7039486,82.4755288 31.7720259,84.2179802 32.8707787,85.2563208 C33.9709956,86.2961469 35.6919602,86.2382137 36.7226358,85.1285708 L38,83.7537721" id="Stroke-23" stroke="#5C627D" stroke-width="1.8" stroke-linecap="round" stroke-linejoin="round"></path>
                    <path d="M42,86.4948523 L41.3416512,87.2008907 C40.3727739,88.2407746 38.7864257,88.269347 37.7831251,87.2655545 C36.7769557,86.2587543 36.7346436,84.5880224 37.6891777,83.5263332 L38.1625004,83" id="Stroke-25" stroke="#5C627D" stroke-width="1.8" stroke-linecap="round" stroke-linejoin="round"></path>
                    <polyline id="Stroke-27" stroke="#5C627D" stroke-width="1.8" stroke-linecap="round" stroke-linejoin="round" points="0 76.1238095 7.16169665 79 20 47.2186949 0 39"></polyline>
                    <polyline id="Stroke-29" stroke="#5C627D" stroke-width="1.8" stroke-linecap="round" stroke-linejoin="round" points="92 78.1238095 84.8380541 81 72 49.2186949 92 41"></polyline>
                    <path d="M4,45 L4,45 C6.26311899,49.3805963 7.24390244,54.2596427 6.84183296,59.1253315 L6.18994826,67 L14,48.856134 L4,45 Z" id="Fill-31" fill="#4468CC"></path>
                    <path d="M87,47 L87,47 C84.736881,51.3805963 83.7560976,56.2596427 84.1589061,61.1253315 L84.8107908,69 L77,50.856134 L87,47 Z" id="Fill-33" fill="#4468CC"></path>
                    <g id="Group-9-Copy" transform="translate(25.000000, 0.000000)">
                        <circle id="Oval" stroke="#5C627D" stroke-width="1.8" stroke-linecap="round" stroke-linejoin="round" cx="20.9999996" cy="20.9999996" r="20.9999996"></circle>
                        <path d="M20.5858386,4.82243997 L14.4853381,14.2090207 C14.2568581,14.5706407 14.2014181,15.0158407 14.3345581,15.4219807 L20.8176786,34.6844421 C20.8596786,34.8142221 21.0436386,34.8142221 21.0864786,34.6848621 L27.4784591,15.4291207 C27.6149591,15.0183607 27.5586791,14.5685407 27.325579,14.2039807 L21.3199986,4.82033997 C21.1482186,4.55195995 20.7559386,4.55321995 20.5858386,4.82243997" id="Fill-1" fill="#FFFFFF"></path>
                        <path d="M28.0724231,16.4236808 L21.4570026,36.1884622 L31.2913033,20.7702611 C31.3589233,20.6640011 31.3585033,20.5275011 31.2900433,20.4225011 L28.6469831,16.3506008 C28.5008231,16.1246408 28.1581031,16.1683208 28.0724231,16.4236808" id="Fill-4" fill="#4468CC"></path>
                        <path d="M13.7694481,16.3392188 L20.3848685,36.1044202 L10.5505678,20.6862191 C10.4829478,20.5799591 10.4833678,20.4434591 10.5518278,20.3380391 L13.194888,16.2661388 C13.341048,16.0405988 13.6837681,16.0842788 13.7694481,16.3392188" id="Fill-7" fill="#4468CC"></path>
                    </g>
                </g>
            </g>
        </g>
    </g>
</svg>