<svg width="72" height="72" xmlns="http://www.w3.org/2000/svg" xmlns:xlink="http://www.w3.org/1999/xlink">
    <title>Borrow VIGOR by using your crypto</title>
    <defs>
        <path d="M28.0302 15.7791007c4.1159999 0 7.4639998 3.3480002 7.4639998 7.4640004s-3.3479999 7.4670003-7.4639998 7.4670003-7.4639997-3.3510001-7.4639997-7.4670003 3.3479998-7.4640004 7.4639997-7.4640004zm0 17.931c5.7689999 0 10.4639998-4.6950001 10.4639998-10.4670003 0-5.7690002-4.6949999-10.4640004-10.4639998-10.4640004s-10.4639997 4.6950002-10.4639997 10.4640004c0 5.7720002 4.6949998 10.4670003 10.4639997 10.4670003zm4.0199994-10.5210011c.027-.042.027-.096 0-.135l-1.0230001-1.578c-.06-.087-.189-.072-.225.027l-2.565 7.6620001 3.8130001-5.9760001zM25.9662 20.9180998l2.073-3.192 2.0460001 3.192c.006.012.006.027.006.039l-2.0520001 6.174-2.076-6.174c-.006-.015-.003-.027.003-.039zm2.0759997 7.7010008c.024 0 .045-.012.051-.036l2.4809999-7.4640001c.051-.159.03-.336-.06-.477l-2.3279999-3.6360001c-.033-.051-.09-.078-.144-.078-.054 0-.108.027-.141.078l-2.3669999 3.6390001c-.087.138-.108.312-.057.471l2.5139999 7.4670001c.006.024.03.036.051.036zm-2.783999-7.1490009c-.033-.099-.165-.117-.222-.027l-1.026 1.5780001c-.027.042-.027.093 0 .135l3.813 5.9760001-2.565-7.6620002zm-3.0060006 42.516c-.477.5279999-1.137.7949999-1.8.7949999-.546 0-1.092-.18-1.545-.552l-6.0210002-4.9559997c-1.062-.8729999-1.188-2.4569999-.279-3.4889998L15.8982 51.6861003l9.8550002 8.0999996-3.5010001 4.1999998zm-4.4490003-14.6159992l-2.3429999-1.9290001-1.902 2.3670001L10.2702 53.9061006c-.87900003.993-1.36800002 2.4600001-1.25400002 3.9210001.11699999 1.4580001.83099998 2.8290001 1.96199992 3.7620002l6.0239999 4.9560001c.969.798 2.196 1.236 3.45 1.236 1.527 0 2.9909999-.645 4.0169999-1.776l3.588-4.2960001 1.9319999-2.3190001-2.3339999-1.9200001-9.8519999-8.1000002zM48.799201 5.99910003c4.1159999 0 7.4639998 3.34799989 7.4639998 7.46399977 0 4.1159998-3.3479999 7.4639997-7.4639998 7.4639997-4.1159998 0-7.4639997-3.3479999-7.4639997-7.4639997 0-4.11599988 3.3479999-7.46399977 7.4639997-7.46399977zm0 17.92799947c5.7689999 0 10.4639998-4.6949999 10.4639998-10.4639997 0-5.76899988-4.6949999-10.46399977-10.4639998-10.46399977-5.7689998 0-10.4639997 4.69499989-10.4639997 10.46399977 0 5.7689998 4.6949999 10.4639997 10.4639997 10.4639997zm13.157998 20.0820008L47.0831993 55.6430999c-1.317 1.029-2.931 1.575-4.578 1.575-.3899999 0-.7829999-.03-1.1729999-.09l-10.0259999-1.602-10.0019998-8.2229997 10.6679998-7.2779998c.702-.48 1.527-.735 2.37-.735.111 0 .219.006.327.015l12.3629998.963c2.5499999.198 2.5949999 3.9179999.051 4.1789999l-11.6669998 1.1879999s-1.548.438-1.395 1.416c.153.981 1.395 1.0289999 1.395 1.0289999l10.9709998-.8639999c1.9769999-.156 3.7679999-1.239 4.8209999-2.9189999l1.323-2.106 7.0469999-2.5079999c.309-.108.609-.159.8909999-.159 2.175 0 3.465 2.9399999 1.488 4.4849999zm3.6719986-3.732c-.774-2.2469999-2.8469999-3.7529999-5.1599998-3.7529999-.636 0-1.2749999.111-1.8959999.333l-7.0469997 2.5049999-.399.144c-.8279999-1.2569999-2.2109999-2.1029999-3.8609998-2.2289999l-12.3629994-.963c-.186-.015-.372-.024-.558-.024-1.4549999 0-2.8619999.435-4.0649998 1.254l-10.6679995 7.2809998-3.3029999 2.253 3.0899999 2.5409999 10.0019995 8.2229998.627.519.8039999.126 10.0259996 1.602c.546.087 1.0979999.129 1.6469999.129 2.3159999 0 4.5989998-.786 6.4229997-2.211l14.8769993-11.6339997c1.878-1.47 2.5949999-3.8609999 1.824-6.0959999zM46.7351998 11.1381002l2.076-3.19200002 2.0399999 3.19200002c.009.012.012.024.006.039l-2.0489999 6.1739999-2.079-6.1769999c-.003-.012-.003-.024.006-.036zm2.0759996 7.7039999c.024 0 .045-.015.051-.039l2.4810001-7.464c.051-.159.03-.336-.063-.477l-2.3250001-3.63600002c-.036-.054-.09-.078-.144-.078-.054 0-.108.027-.141.078l-2.367 3.63900002c-.0870001.141-.1080001.312-.0570001.471l2.5140001 7.467c.009.024.03.039.051.039zm4.0079995-5.4329998c.027-.042.027-.096 0-.135l-1.026-1.5780001c-.057-.09-.189-.072-.222.027l-2.565 7.6620002 3.813-5.9760001zm-6.7919987-1.7190004c-.033-.099-.165-.114-.222-.027l-1.026 1.578c-.027.039-.027.093 0 .135L48.5922003 19.3521l-2.5650001-7.6620001z" id="borrow"/>
    </defs>
    <g fill="none" fill-rule="evenodd">
        <mask id="borrow-b" fill="#fff">
            <use xlink:href="#borrow"/>
        </mask>
        <use fill="#000" xlink:href="#borrow"/>
        <g mask="url(#borrow-b)" fill="#4468CC">
            <path d="M-.001795 0h72v72h-72z"/>
        </g>
    </g>
</svg>
