<svg width="72" height="72" xmlns="http://www.w3.org/2000/svg" xmlns:xlink="http://www.w3.org/1999/xlink">
    <title>Credit Score is automatically calculated for Borrowers</title>
    <defs>
        <path d="M36.5289003 39.0291014c-.8909999 0-1.6169999-.726-1.6169999-1.617 0-.777.567-1.398 1.3019999-1.551.105.024.204.063.315.063.111 0 .21-.039.315-.063.735.153 1.3019999.774 1.3019999 1.551 0 .891-.7259999 1.617-1.6169999 1.617m1.5000002-5.961002V19.0910996c0-.828-.672-1.5-1.5-1.5s-1.5.672-1.5 1.5v13.9769998c-1.8060001.627-3.1170001 2.328-3.1170001 4.3439999 0 2.547 2.073 4.617 4.6170001 4.617 2.5440001 0 4.6170001-2.07 4.6170001-4.617 0-2.0159999-1.311-3.7169999-3.1170001-4.3439999m-1.5-22.7069994c-14.4300002 0-26.1660004 11.7389995-26.1660004 26.1689988 0 .828.669 1.4999999 1.5 1.4999999.8280001 0 1.5-.6719999 1.5-1.4999999 0-12.7739994 10.3920002-23.1689988 23.1660004-23.1689988 12.7740002 0 23.1660003 10.3949994 23.1660003 23.1689988 0 .828.672 1.4999999 1.5 1.4999999.8310001 0 1.5000001-.6719999 1.5000001-1.4999999 0-14.4299993-11.7360002-26.1689988-26.1660004-26.1689988m24.3660007 30.3089998c-.804-.183-1.614.318-1.803 1.122-.249 1.086-.582 2.16-.993 3.201-1.1579999 2.949-2.8829999 5.592-5.1239999 7.851-.582.588-.579 1.539.009 2.121.294.291.672.438 1.056.438s.771-.15 1.065-.444c2.532-2.556 4.4789999-5.538 5.7869999-8.868.462-1.176.84-2.394 1.125-3.621.186-.807-.315-1.614-1.122-1.8M47.6439016 56.8611007c-.6660001.3630001-1.3530001.6960001-2.0520001.9930001-.765.327-1.122 1.206-.798 1.9680001.243.573.798.915 1.383.915.195 0 .396-.039.585-.12.7950001-.339 1.5690001-.714 2.3220001-1.125.726-.3990001.993-1.3110001.594-2.0370001-.399-.7260001-1.308-.9930001-2.034-.5940001M36.5288991 67.058102c-16.8329994 0-30.52799895-13.6950005-30.52799895-30.528001 0-16.8360005 13.69499955-30.53100097 30.52799895-30.53100097S67.056898 19.6941005 67.056898 36.530101c0 16.8330005-13.6949995 30.528001-30.5279989 30.528001m0-64.05900197c-18.4889994 0-33.52799895 15.04200047-33.52799895 33.53100097 0 18.4860005 15.03899955 33.528001 33.52799895 33.528001 18.4889994 0 33.5279989-15.0420005 33.5279989-33.528001 0-18.4890005-15.0389995-33.53100097-33.5279989-33.53100097" id="creditscore"/>
    </defs>
    <g fill="none" fill-rule="evenodd">
        <mask id="creditscore-b" fill="#fff">
            <use xlink:href="#creditscore"/>
        </mask>
        <use fill="#000" xlink:href="#creditscore"/>
        <g mask="url(#creditscore-b)" fill="#6DE4F0">
            <path d="M-.001795 0h72v72h-72z"/>
        </g>
    </g>
</svg>
