<svg width="72" height="72" xmlns="http://www.w3.org/2000/svg" xmlns:xlink="http://www.w3.org/1999/xlink">
    <title>Earn VIGOR by providing Loan Insurance for Borrowers</title>
    <defs>
        <path d="M57.75 34.6487995h-1.7969999c.705-1.3590001 1.1159999-2.8470001 1.1729999-4.4040002l1.497.063-.006.036c.813.339 1.383 1.1370001 1.383 2.0640001 0 1.236-1.008 2.2410001-2.25 2.2410001zM60 63.1037976c0 1.6049999-1.311 2.9099999-2.922 2.9099999H14.922c-1.611 0-2.922-1.305-2.922-2.9099999v-25.466999h48v25.466999zM24.5430007 30.1698005h11.4870005c.048 1.575.462 3.096 1.1760001 4.4790001H24.5430007v-4.4790001zm22.0499983 3.6029992l-2.1060001-6.2310002c-.006-.012-.003-.024.003-.036l2.1030001-3.2220001 2.0700001 3.2220001c.009.012.009.024.006.039l-2.0760001 6.2280002zM46.5809997 22.3008c4.1819999 0 7.5839998 3.3870002 7.5839998 7.5510003 0 1.7730001-.642 3.4440002-1.773 4.7970003h-4.8449998l3.1079999-4.8540003c.027-.042.027-.093 0-.135l-1.038-1.593c-.057-.09-.192-.072-.225.027l-2.2049999 6.5550003h-.345l2.316-6.9420003c.054-.1620001.03-.3360001-.06-.4800001l-2.358-3.6690001c-.036-.051-.09-.078-.144-.078-.057 0-.111.027-.144.078l-2.3969999 3.6720001c-.09.141-.111.315-.06.4740001l2.349 6.9450003h-.357l-2.214-6.5850003c-.033-.102-.168-.117-.225-.03l-1.0379999 1.593c-.027.039-.027.093 0 .135l3.1289999 4.8870003h-4.8869999C39.63 33.2988005 39 31.6098004 39 29.8518003c0-4.1640001 3.4019999-7.5510003 7.5809997-7.5510003zM58.362 27.2448008h-1.563c-1.173-4.5450003-5.292-7.9290004-10.218-7.9290004-4.902 0-9 3.3540001-10.194 7.8660004H21.543v7.4670003H9v28.4550014c0 3.2520002 2.655 5.8950003 5.922 5.8950003h42.156c3.267 0 5.922-2.6430001 5.922-5.8950003V32.407801c0-2.6730001-2.034-4.8570002-4.638-5.1630002zM23.2440003 11.7498001c-.036-.102-.171-.117-.228-.03l-1.038 1.593c-.027.042-.027.093 0 .135l3.8639999 6.03-2.5979999-7.728zm6.8820003 1.7309997c.024-.042.024-.093 0-.135l-1.041-1.593c-.057-.087-.192-.072-.225.027l-2.598 7.731 3.864-6.03zm-6.1680009-2.2889999l2.103-3.22200008 2.07 3.22200008c.009.012.012.024.006.039l-2.076 6.2280002-2.106-6.2310002c-.003-.012-.003-.024.003-.036zm2.1059997 7.77c.021 0 .045-.012.054-.039l2.5080001-7.5299998c.054-.162.033-.336-.06-.48l-2.3580001-3.66899995c-.033-.051-.087-.078-.144-.078-.054 0-.111.027-.144.078l-2.397 3.67199995c-.087.141-.111.315-.057.474l2.544 7.5329998c.009.027.033.039.054.039zm-.012-12.97499994c4.1819999 0 7.5809998 3.38699999 7.5809998 7.55099994 0 4.164-3.3989999 7.548-7.5809998 7.548-4.1819998 0-7.5839997-3.384-7.5839997-7.548 0-4.16399995 3.4019999-7.55099994 7.5839997-7.55099994zm0 18.08700034c5.8349999 0 10.5809998-4.7280001 10.5809998-10.5360002 0-5.81100006-4.7459999-10.53900012-10.5809998-10.53900012-5.8349998 0-10.5839997 4.72800006-10.5839997 10.53900012 0 5.8080001 4.7489999 10.5360002 10.5839997 10.5360002z" id="earn"/>
    </defs>
    <g fill="none" fill-rule="evenodd">
        <mask id="earn-b" fill="#fff">
            <use xlink:href="#earn"/>
        </mask>
        <use fill="#000" xlink:href="#earn"/>
        <g mask="url(#earn-b)" fill="#6DE4F0">
            <path d="M-.001795 0h72v72h-72z"/>
        </g>
    </g>
</svg>
