<svg version="1.1"
	 id="iq-logo"
	 xmlns="http://www.w3.org/2000/svg" x="0px" y="0px" viewBox="0 0 100 100"
	 style="enable-background:new 0 0 100 100;" xml:space="preserve">
<style type="text/css">
	.st0-iq{fill:#388CDE;}
	.st1-iq{fill:#0A4B88;}
</style>
	<g id="g6" transform="matrix(0.02356008,0,0,-0.0239169,-8.1675258,89.187633)">
		<path id="path10" class="st0-iq" d="M2029.6,3667.7c-525-118.7-998.8-443.7-1296.3-887.5
			c-150-222.5-240-433.7-301.3-707.5c-42.5-182.5-56.3-503.7-31.3-701.2c63.8-516.2,321.3-975,737.5-1322.5
			c217.5-181.2,462.5-315,462.5-252.5c0,8.7-26.3,40-57.5,71.2C1329.6,74,1217.1,435.2,1262.1,771.5
			c60,447.5,243.8,746.2,602.5,978.7c67.5,43.7,128.8,80,136.3,80c26.3,0,10,52.5-55,177.5c-125,236.2-170,398.7-170,613.7
			c0,330,140,682.5,355,896.2c62.5,61.2,70,73.7,70,122.5s-2.5,52.5-33.8,51.2C2147.1,3691.5,2085.8,3680.2,2029.6,3667.7z"/>
		<path id="path12" class="st1-iq" d="M3300.8,3536.5c0-10,18.8-45,42.5-77.5
			c111.3-157.5,170-327.5,178.8-522.5c11.2-236.2-52.5-441.2-170-545c-86.3-76.2-161.3-78.7-268.8-11.2
			c-76.3,48.7-85,83.7-33.8,148.7c86.3,108.7,138.8,278.7,138.8,453.7c0,181.2-35,282.5-130,370c-102.5,93.7-206.3,121.2-345,88.7
			c-141.3-31.2-273.8-182.5-345-393.7c-36.2-108.7-67.5-296.2-67.5-405c1.2-205,62.5-446.2,151.3-593.7
			c50-83.7,173.8-221.2,247.5-275c27.5-20,51.3-41.2,51.3-45c0-5-26.3-17.5-58.8-30c-240-88.7-481.3-355-588.8-648.7
			c-68.8-187.5-93.8-340-85-515c10-215,48.8-316.2,171.3-448.7c96.3-105,278.8-152.5,497.5-131.2c252.5,26.2,446.3,116.2,612.5,287.5
			c72.5,76.2,87.5,85,101.3,68.7c12.5-15,10-27.5-16.3-72.5c-165-280-472.5-520-757.5-590c-62.5-15-88.8-27.5-88.8-41.2
			c0-45,388.8,17.5,623.8,100c601.3,210,1096.3,708.7,1296.3,1303.7c82.5,246.2,96.3,343.7,97.5,650c1.2,238.7-2.5,293.7-27.5,415
			c-121.3,602.5-510,1116.2-1078.8,1426.2C3349.6,3557.7,3300.8,3569,3300.8,3536.5z"/>
	</g>
</svg>
