<svg width="72" height="72" xmlns="http://www.w3.org/2000/svg" xmlns:xlink="http://www.w3.org/1999/xlink">
    <title>VIG Token is used as Final Reserve</title>
    <defs>
        <path d="M36.5288991 67.057499c-16.8329994 0-30.52799895-13.6949998-30.52799895-30.5279995 0-16.3289997 12.89399955-29.66399951 29.02799895-30.4529995v17.8859997l-.099.195.099.048v17.4269997l19.2389993-29.9009995c7.7279998 5.5439999 12.7889996 14.5799998 12.7889996 24.7979996 0 16.8329997-13.6949995 30.5279995-30.5279989 30.5279995zM49.758899 13.1924999L38.0288991 7.24649999V6.0765c4.9769999.243 9.6419999 1.66799998 13.7189998 4.026l-1.9889999 3.0899999zm-3.6660001 5.6969998l-8.0639998-4.0919999V10.6065l10.0979998 5.1239998-2.034 3.1589999zm-3.6689999 5.7059999l-4.3949999-2.229v-4.206l6.4349999 3.267-2.04 3.168zm-4.3949978 1.1340008l2.763 1.401-2.763 4.2960001v-5.6970001zM36.5288991 2.99849993c-18.4889994 0-33.52799895 15.04200047-33.52799895 33.53100097 0 18.4860005 15.03899955 33.528001 33.52799895 33.528001 18.4859994 0 33.5279989-15.0420005 33.5279989-33.528001 0-18.4890005-15.0419995-33.53100097-33.5279989-33.53100097z" id="final-reserve"/>
    </defs>
    <g fill="none" fill-rule="evenodd">
        <mask id="final-reserve-b" fill="#fff">
            <use xlink:href="#final-reserve"/>
        </mask>
        <use fill="#000" xlink:href="#final-reserve"/>
        <g mask="url(#final-reserve-b)" fill="#6DE4F0">
            <path d="M-.001795 0h72v72h-72z"/>
        </g>
    </g>
</svg>
