<?xml version="1.0" encoding="utf-8"?>
<!-- Generator: Adobe Illustrator 24.2.3, SVG Export Plug-In . SVG Version: 6.00 Build 0)  -->
<svg version="1.1" id="logo_art" xmlns="http://www.w3.org/2000/svg" xmlns:xlink="http://www.w3.org/1999/xlink" x="0px" y="0px"
	 viewBox="0 0 16 14.8" style="enable-background:new 0 0 16 14.8;" xml:space="preserve">
<style type="text/css">
	.st0-gitlab{fill:#5981F0;}
</style>
<path class="st0-gitlab" d="M16,8.3l-0.8-2.6c0,0,0,0,0-0.1l-1.7-5.2C13.3,0.2,13.1,0,12.8,0c-0.3,0-0.5,0.2-0.6,0.5l-1.6,4.9H5.5L3.9,0.5
	C3.8,0.2,3.5,0,3.2,0h0C2.9,0,2.7,0.2,2.6,0.5L0.9,5.6c0,0,0,0,0,0L0,8.3c-0.1,0.4,0,0.8,0.3,1.1l7.4,5.4c0.1,0.1,0.3,0.1,0.4,0l0,0
	l7.4-5.4C15.9,9.1,16.1,8.7,16,8.3z M4.9,6.2L7,12.5L2,6.2H4.9z M9,12.5l2-6.1l0.1-0.3H14l-4.5,5.7L9,12.5z M12.8,0.9l1.4,4.5h-2.9
	L12.8,0.9z M10.3,6.2l-1.4,4.4L8,13.2l-2.3-7H10.3z M3.2,0.9l1.4,4.5H1.8L3.2,0.9z M0.8,8.7C0.8,8.7,0.7,8.6,0.8,8.5l0.6-1.9l4.7,6
	L0.8,8.7z M15.2,8.7l-5.2,3.8l0,0l4.6-5.9l0.6,1.9C15.3,8.6,15.2,8.7,15.2,8.7L15.2,8.7z"/>
</svg>
