<svg width="72" height="72" xmlns="http://www.w3.org/2000/svg" xmlns:xlink="http://www.w3.org/1999/xlink">
    <title>Hedge your crypto exposure by taking out VIGOR loans</title>
    <defs>
        <path d="M54.1853993 29.9282999c-4.1159999 0-7.4639998-3.3479999-7.4639998-7.4639997 0-4.1159999 3.3479999-7.4639998 7.4639998-7.4639998s7.4639997 3.3479999 7.4639997 7.4639998c0 4.1159998-3.3479998 7.4639997-7.4639997 7.4639997zM43.9854004 57.7233016H30.1884005l6.9-11.9490001 6.8969999 11.9490001zm21.1050011-27.3240021c-.2730001-.7799999-1.1280001-1.1909999-1.9140001-.9179999l-1.983.6989999c2.109-1.9169999 3.456-4.6499997 3.456-7.7159996 0-5.7719997-4.692-10.4639995-10.4640002-10.4639995-5.7720001 0-10.4640002 4.6919998-10.4640002 10.4639995 0 5.5589997 4.3710001 10.0799995 9.8520002 10.4009995L10.0014004 48.2252987c-.78000006.276-1.19100007 1.1339999-.91500007 1.9139999.21900001.615.79500002 1.0019999 1.41300007 1.0019999.168 0 .336-.027.498-.087l24.5790005-8.6639995-10.5840002 18.3329991h24.1890004L38.0874009 41.505299l26.0850005-9.1949996c.7830001-.273 1.1940001-1.1309999.9180001-1.9109999zm-10.8960023-4.0469993l-2.0759999-6.1769999c-.006-.012-.003-.024.003-.036l2.0729999-3.1949999 2.046 3.1949999c.006.012.006.027.003.039l-2.049 6.1739999zm2.4720021-6.4889997l-2.325-3.636c-.036-.054-.09-.078-.144-.078-.054 0-.108.027-.141.078l-2.367 3.639c-.087.138-.108.312-.06.471l2.514 7.4670002c.009.024.03.036.054.036.021 0 .045-.012.051-.036l2.481-7.4670002c.051-.159.027-.333-.063-.474zm-5.4749999.8009996l-1.026 1.5750001c-.027.042-.027.096 0 .135l3.813 5.9790001-2.565-7.6620002c-.036-.099-.165-.117-.222-.027zm5.9879987.0300001c-.057-.087-.189-.069-.222.03L54.3924 28.3863001l3.8130001-5.9759999c.027-.042.027-.096 0-.135l-1.026-1.581z" id="hedge"/>
    </defs>
    <g fill="none" fill-rule="evenodd">
        <mask id="hedge-b" fill="#fff">
            <use xlink:href="#hedge"/>
        </mask>
        <use fill="#000" xlink:href="#hedge"/>
        <g mask="url(#hedge-b)" fill="#4468CC">
            <path d="M-.001795 0h72v72h-72z"/>
        </g>
    </g>
</svg>
