<svg width="72" height="72" xmlns="http://www.w3.org/2000/svg" xmlns:xlink="http://www.w3.org/1999/xlink">
    <title>Earn VIGOR by lending your crypto as insurance collateral</title>
    <defs>
        <path d="M27.9505614 53.2350001l-2.883 1.662-.021-.06 2.028-5.556.876 3.954zm-5.2049998-4.698001l2.0789999-2.6969999 2.082 2.7449999-2.073 5.6759999-2.0879999-5.7239999zm1.8569997 6.3660013l-2.859-1.668.825-4.0379999 2.055 5.6399999-.021.066zm2.7239991-6.3239999h-.003l-.027-.129-2.4689999-3.2580001-2.514 3.2580001-1.014 4.974 3.528 2.0580001 3.5699999-2.0580001-1.071-4.836v-.009zm-2.477999 9.2220001c-4.1160002 0-7.4640003-3.3479999-7.4640003-7.4639998 0-4.1159998 3.3480001-7.4639997 7.4640003-7.4639997s7.4670004 3.3479999 7.4670004 7.4639997c0 4.1159999-3.3510002 7.4639998-7.4670004 7.4639998zm0-17.9279995c-5.7690002 0-10.4640003 4.6919999-10.4640003 10.4639997 0 5.7719999 4.6950001 10.4639998 10.4640003 10.4639998 5.7720002 0 10.4670004-4.6919999 10.4670004-10.4639998 0-5.7719998-4.6950002-10.4639997-10.4670004-10.4639997zm26.733001 17.8589979l-2.883 1.665-.021-.06 2.028-5.5590001.876 3.9540001zm-5.2050012-4.6979981l2.0789999-2.6970001 2.082 2.7480001-2.07 5.6760002-2.0909999-5.7270002zm1.8569989 6.3659982l-2.859-1.6679999.825-4.0379999 2.058 5.6429998-.024.063zm2.7270012-6.3209999l-.006-.003-.027-.126-2.469-3.261-2.511 3.261-1.014 4.974 3.525 2.058 3.5700001-2.058-1.0710001-4.839.003-.006zm-2.4809989 9.2220014c-4.1130002 0-7.4640003-3.3479999-7.4640003-7.4639998 0-4.1159998 3.3510001-7.4639997 7.4640003-7.4639997 4.1160002 0 7.4670004 3.3479999 7.4670004 7.4639997 0 4.1159999-3.3510002 7.4639998-7.4670004 7.4639998zm0-17.9279995c-5.7690002 0-10.4640003 4.6919999-10.4640003 10.4639997 0 5.7719999 4.6950001 10.4639998 10.4640003 10.4639998 5.7720002 0 10.4670004-4.6919999 10.4670004-10.4639998 0-5.7719998-4.6950002-10.4639997-10.4670004-10.4639997zM12.9775611 32.7720005L27.8545613 21.141c1.314-1.032 2.928-1.5810001 4.578-1.5810001.39 0 .7800001.033 1.1700001.096L43.6315615 21.255l10.0020001 8.2260003-10.6710001 7.2780003c-.699.477-1.527.7320001-2.3700001.7320001-.111 0-.219-.006-.327-.015l-12.3630001-.9600001c-2.55-.201-2.592-3.9210001-.048-4.1820002l11.6640001-1.185s1.5480001-.441 1.3950001-1.4190001c-.1530001-.978-1.3950001-1.029-1.3950001-1.029l-10.9710001.864c-1.977.156-3.7650001 1.2360001-4.8210001 2.9190002l-1.323 2.109-7.0470001 2.5050001c-.309.108-.606.162-.891.162-2.175 0-3.465-2.9430001-1.488-4.4880001zm3.3840003 7.1520001l7.0470002-2.505.3990001-.141c.831 1.257 2.211 2.1 3.8640001 2.229l12.3600004.9600001c.1860001.015.3720001.024.5580001.024 1.458 0 2.8620001-.4350001 4.0650001-1.2540001l10.6680004-7.2810002 3.3060001-2.2530001-3.0900001-2.538L45.5365624 18.936l-.63-.513-.804-.129-10.0260004-1.6020001c-.543-.087-1.098-.132-1.644-.132-2.3190001 0-4.6020002.7890001-6.4260003 2.2170001L11.1295612 30.4110004c-1.87800007 1.467-2.5950001 3.8610001-1.82400007 6.0960001.77100007 2.2440001 2.84700007 3.7530001 5.16000017 3.7530001.636 0 1.2750001-.114 1.8960001-.336zM62.324561 20.9969995l-3.2880001 4.0979998-9.8520001-8.0999996 3.501-4.1999997c.477-.525 1.1370001-.795 1.7970001-.795.546 0 1.092.18 1.545.552l6.0210001 4.9589997c1.062.873 1.188 2.4539999.276 3.4859998zm1.6289991-5.8049993L57.9325602 10.236c-.969-.79799999-2.193-1.236-3.4499999-1.236-1.527 0-2.991.64800002-4.017 1.7760001l-3.5849999 4.2960001-1.9349999 2.3220001 2.3309999 1.917 9.8549998 8.1030003 2.343 1.926 1.9019999-2.367 3.291-4.0980002c.8789999-.99 1.3679999-2.457 1.2509999-3.9210001-.117-1.458-.831-2.8290001-1.9649999-3.7620001z" id="lend"/>
    </defs>
    <g fill="none" fill-rule="evenodd">
        <mask id="lend-b" fill="#fff">
            <use xlink:href="#lend"/>
        </mask>
        <use fill="#000" xlink:href="#lend"/>
        <g mask="url(#lend-b)" fill="#4468CC">
            <path d="M-.001795 0h72v72h-72z"/>
        </g>
    </g>
</svg>
