<svg version="1.1" id="Layer_1" xmlns="http://www.w3.org/2000/svg" x="0px" y="0px"
	 viewBox="0 0 300 300" style="enable-background:new 0 0 300 300;" xml:space="preserve">
<style type="text/css">
	.st0-pbtc{fill:#F8F9ED;}
	.st1-pbtc{fill:#FE5860;}
	.st2-pbtc{fill:#E85453;}
	.st3-pbtc{fill:#FE8E01;}
	.st4-pbtc{fill:#E85755;}
	.st5-pbtc{fill:#FE8E02;}
</style>
<g>
<!--	<ellipse class="st0-pbtc" cx="149.9" cy="150.4" rx="149.4" ry="149.6"/>-->
	<g id="sxn90Y.tif">
		<g>
			<path class="st0-pbtc" d="M149.7,232.7c45,0.3,81.6-36.3,82-82c0.3-45.6-36.2-82.4-82.1-82.7c-44.9-0.3-81.5,36.5-81.8,82.3
				C67.5,194.7,103.2,232.6,149.7,232.7z"/>
			<path class="st1-pbtc" d="M218.3,82.8c-7.8-7.6-16.3-14.1-26.1-18.9c-15-7.4-30.8-10.8-47.4-9.8c-42.1,2.4-78,31.2-88,73.1
				c-8.2,34.2,0.4,64.4,24.1,90.3c0.4,0.4,0.8,0.9,1.2,1.4c-0.5,0.6-1.1,1.3-1.7,1.9c-5.5,5.5-11.1,11.1-16.6,16.6
				c-0.6,0.6-0.9,1.5-1.4,2.2c-0.1,0.1-0.3,0.2-0.4,0.3c-0.3,0.2-0.6,0.5-0.9,0.7c-6.1,4.9-12.1,9.8-18.6,15
				c-4.3-5.2-8.9-10.4-13.1-16c-14-18.7-22.9-39.7-27-62.7c-2.4-13.4-3-27-1.6-40.6C4.6,97.5,21,65,49.6,38.8
				c20.7-19,45.1-31,72.7-36.1c6-1.1,12.2-1.5,18.2-2.3c0.4-0.1,0.8-0.3,1.2-0.4c5.6,0,11.2,0,16.9,0c3.3,0.4,6.7,0.9,10,1.3
				c16.1,1.9,31.4,6.4,45.9,13.4c15.8,7.6,29.9,17.5,42.2,30.1c-0.8,0.6-1.7,1-2.3,1.7c-11.5,11.5-23,23-34.4,34.5
				C219.3,81.5,218.8,82.1,218.3,82.8z"/>
			<path class="st2-pbtc" d="M218.3,82.8c0.5-0.6,1-1.3,1.6-1.9c11.5-11.5,22.9-23,34.4-34.5c0.7-0.7,1.5-1.1,2.3-1.7
				c5.7,6.9,11.9,13.4,17.1,20.7c13.6,19.4,21.8,41,24.9,64.5c0.4,3.1,0.9,6.2,1.3,9.3c0,7.5,0,14.9,0,22.4c-0.4,3-0.9,5.9-1.3,8.9
				c-2.9,22.3-10.6,42.7-22.8,61.6c-6.9,10.7-15.1,20.2-24.3,28.9c-0.3,0.3-0.7,0.5-1.1,0.9c-12.7-13.9-27.4-25-44.3-33.3
				c3.5-3,7-5.8,10.2-8.9c15.8-15.4,25.5-34.1,28.4-55.9c4.1-30.5-4.7-57.1-25.3-79.9C219,83.6,218.6,83.2,218.3,82.8z"/>
			<path class="st3-pbtc" d="M149.7,232.7c-46.5-0.1-82.2-38-81.9-82.5c0.3-45.7,37-82.6,81.8-82.3c45.9,0.3,82.4,37.1,82.1,82.7
				C231.3,196.4,194.7,233,149.7,232.7z M174.7,151.5c10.8-3,12.8-14.2,10.6-20.7c-1.4-4.3-4.6-7-8.3-9.2c-2.8-1.6-5.8-2.9-9-4.4
				c1.1-4.7,2.3-9.5,3.5-14.6c-3.1-0.8-6-1.5-9-2.3c-1.2,4.9-2.4,9.6-3.6,14.4c-2.5-0.6-4.8-1.1-7.1-1.7c1.2-4.9,2.4-9.6,3.6-14.5
				c-3.1-0.8-5.9-1.5-9-2.2c-1.3,4.9-2.5,9.8-3.8,14.8c-6.1-1.5-12.1-3-18.1-4.5c-0.8,3.3-1.6,6.4-2.4,9.5c2.3,0.6,4.5,1.1,6.7,1.8
				c3.4,1.1,4.5,3,3.7,6.4c-0.7,2.9-1.4,5.7-2.1,8.6c-2.5,9.9-4.9,19.7-7.4,29.6c-0.7,2.9-1.9,3.7-4.8,3.1c-1.6-0.3-3.2-0.8-4.9-1.2
				c-0.5-0.1-1.4,0-1.5,0.3c-1.4,3.1-2.8,6.3-4.2,9.6c6.2,1.6,12.1,3.1,18.1,4.6c-1.3,5.1-2.5,10-3.7,15c3.1,0.8,6,1.5,9,2.2
				c1.3-5,2.5-9.8,3.7-14.8c2.5,0.7,4.7,1.3,7.1,1.9c-1.2,5-2.4,9.8-3.6,14.7c3.1,0.8,6,1.5,9,2.2c1.3-5.1,2.6-10,3.8-14.8
				c2.8,0.4,5.3,0.8,7.8,1c13.5,1.2,21.5-3.3,24.8-15.9c2.1-7.8-0.2-13.6-7-18.1C176,152.4,175.5,152,174.7,151.5z"/>
			<path class="st4-pbtc" d="M62.4,239.5c0.4-0.7,0.8-1.6,1.4-2.2c5.5-5.6,11-11.1,16.6-16.6c0.6-0.6,1.1-1.2,1.7-1.9
				c2.3,2.1,4.6,4.1,6.5,5.9C79.8,229.6,71.1,234.6,62.4,239.5z"/>
			<path class="st4-pbtc" d="M61.1,240.5c0.3-0.2,0.6-0.5,0.9-0.7C61.7,240.1,61.4,240.3,61.1,240.5z"/>
			<path class="st5-pbtc" d="M137.6,170.7c1.7-6.6,3.3-13.1,4.9-19.8c6.7,1.5,13.3,2.6,18.8,6.6c3.7,2.6,5,6.1,3.8,9.9
				c-1.1,3.6-4,5.7-8.4,6.1C150.3,174.2,144.1,172.5,137.6,170.7z"/>
			<path class="st5-pbtc" d="M144.8,141.8c1.5-6.1,3-11.9,4.5-18c5.8,1.3,11.6,2.2,16.3,6.2c2.6,2.2,3.2,5.1,2.4,8.2
				c-0.8,3.2-3.1,4.9-6.2,5.6C156,145.1,150.6,143.2,144.8,141.8z"/>
		</g>
	</g>
</g>
</svg>
