<svg width="20" height="18" xmlns="http://www.w3.org/2000/svg">
    <title>PDF</title>
    <path d="M12.66667 15.333333v1.333334c0 .375002-.12848.690971-.38542.947916-.25695.256946-.57291.385417-.94792.385417h-10c-.375 0-.69097-.131943-.94791-.395833C.12847 17.340277 0 17.027779 0 16.666667V1.333333C0 .972221.13194.659723.39583.395835.65972.131944.97222 0 1.33333 0H8v4c0 .375003.13194.690971.39583.947917.26389.256944.57639.385416.9375.385416h3.33334v1.333334h-6c-.55556 0-1.02778.194442-1.41667.583333-.38889.388891-.58333.861109-.58333 1.416667v4.666666c0 .555558.19444 1.027776.58333 1.416667.38889.388891.86111.583333 1.41667.583333h6zm0-10.666666H9.33333c-.18055 0-.3368-.065971-.46875-.197918C8.73264 4.336805 8.66667 4.180557 8.66667 4V0l4 4.666667zm-6 2.666666H18c.36111 0 .67361.128472.9375.385416.26389.256947.39583.572915.39583.947918v4.666666c0 .361112-.12847.673611-.38541.937499-.25695.263891-.57292.395835-.94792.395835H6.66667c-.36112 0-.67361-.128472-.9375-.385416-.26389-.256947-.39584-.572915-.39584-.947918V8.666667c0-.361112.12848-.673611.38542-.937499.25695-.263891.57291-.395835.94792-.395835zm8.66666 3.333334V9.333333H18v-.666666h-3.33333v4.666666h.66666v-2h2v-.666666h-2zM6.66667 10v3.333333h.66666v-2h1.33334c.36111 0 .67361-.128472.9375-.385416C9.86806 10.690971 10 10.375003 10 10s-.12847-.690971-.38542-.947917c-.25694-.256944-.57291-.385416-.94791-.385416h-2V10zm2-.666667c.18055 0 .3368.065971.46875.197918.13194.131944.19791.288192.19791.468749 0 .180557-.06597.336805-.19791.468749-.13195.131947-.2882.197918-.46875.197918H7.33333V9.333333h1.33334zm2-.666666v4.666666h2c.36111 0 .67361-.128472.9375-.385416C13.86806 12.690971 14 12.375003 14 12v-2c0-.361112-.12847-.673611-.38542-.937499-.25694-.26389-.57291-.395834-.94791-.395834h-2zm2 .666666c.18055 0 .3368.065971.46875.197918.13194.131944.19791.288192.19791.468749v2c0 .180557-.06597.336805-.19791.468749-.13195.131947-.2882.197918-.46875.197918h-1.33334V9.333333h1.33334z" fill="#5981F0" fill-rule="evenodd"/>
</svg>
