<?xml version="1.0" encoding="UTF-8"?>
<svg width="19px" height="16px" viewBox="0 0 19 16" version="1.1" xmlns="http://www.w3.org/2000/svg" xmlns:xlink="http://www.w3.org/1999/xlink">
    <title>reddit-logo</title>
    <g id="App" stroke="none" stroke-width="1" fill="none" fill-rule="evenodd">
        <g id="rewards-copy" transform="translate(-1222.000000, -1072.000000)" fill="#5981F0">
            <g id="Group-11" transform="translate(1179.000000, 1072.000000)">
                <path d="M61.9083328,7.79166651 C61.9083328,8.65278149 61.5333358,9.27777576 60.7833327,9.66666698 C60.8111111,9.80555725 60.8249997,10 60.8249997,10.25 C60.8249997,11.8333416 60.0125085,13.1874933 58.3874982,14.3125 C56.7624902,15.4375057 54.8111226,16 52.5333329,16 C50.2555438,16 48.31112,15.4444504 46.7,14.333333 C45.0888807,13.2222157 44.2833333,11.8750076 44.2833333,10.291667 C44.2833333,10.0138884 44.2972221,9.80555725 44.3249999,9.66666698 C43.5749963,9.27777576 43.2,8.65278149 43.2,7.79166651 C43.2,7.20833063 43.4083313,6.71528006 43.825,6.31250143 C44.2416687,5.90971994 44.7277749,5.70833349 45.2833333,5.70833349 C45.7833355,5.70833349 46.241664,5.88888788 46.6583333,6.25 C48.1861197,5.19443989 49.9777677,4.625 52.0333333,4.54166651 L52.1166667,4.54166651 L53.4083335,0.25 L57.158333,1 C57.5472231,0.333330661 58.0888847,0 58.7833332,0 L58.8249991,0 C59.3527809,0 59.7902773,0.180554673 60.1374982,0.541666687 C60.4847225,0.902778685 60.658333,1.34721863 60.658333,1.875 C60.658333,2.40278125 60.4847225,2.84722137 60.1374982,3.20833325 C59.7902773,3.56944537 59.3527809,3.75 58.8249991,3.75 L58.7833332,3.75 C58.3111092,3.75 57.8944452,3.59028006 57.5333334,3.27083206 C57.1722205,2.95138669 56.9777788,2.55555725 56.9499993,2.08333325 L54.1583332,1.5 L53.2416668,4.58333349 C55.3527886,4.72222424 57.0888821,5.27777338 58.4499998,6.25 C58.8666694,5.88888788 59.3388845,5.70833349 59.8666664,5.70833349 C60.4222232,5.70833349 60.9013865,5.90971994 61.3041653,6.31250143 C61.7069462,6.71528006 61.9083328,7.20833063 61.9083328,7.79166651 Z M44.6166667,8.625 C44.8388899,7.98610678 45.2416638,7.41666951 45.8250001,6.91666689 C45.6305547,6.77777624 45.4222233,6.70833359 45.2,6.70833359 C44.9222208,6.70833359 44.6791677,6.81249891 44.4708333,7.02083222 C44.2624989,7.22916821 44.1583333,7.47222151 44.1583333,7.7500001 C44.1583333,8.16666935 44.3111096,8.4583334 44.6166667,8.625 Z M58.2833338,1.37500005 C58.1722218,1.5138907 58.1166672,1.68055472 58.1166672,1.87500005 C58.1166672,2.06944541 58.1791658,2.23610937 58.3041658,2.37500003 C58.4291685,2.51389077 58.5888885,2.5833334 58.7833339,2.5833334 C58.9777792,2.5833334 59.1444432,2.51389077 59.2833339,2.37500003 C59.4222245,2.23610937 59.4916672,2.06944541 59.4916672,1.87500005 C59.4916672,1.68055472 59.4222245,1.5138907 59.2833339,1.37500005 C59.1444432,1.23610937 58.9777792,1.1666667 58.7833339,1.1666667 C58.5888885,1.1666667 58.4222245,1.23610937 58.2833338,1.37500005 Z M48.4916668,9.33333308 C48.4916668,9.72222369 48.6236108,10.0416664 48.8874988,10.2916664 C49.1513895,10.5416664 49.4638881,10.6666664 49.8250002,10.6666664 C50.1861122,10.6666664 50.4986109,10.5416664 50.7625015,10.2916664 C51.0263896,10.0416664 51.1583336,9.72222369 51.1583336,9.33333308 C51.1583336,8.97222108 51.0333336,8.66666641 50.7833336,8.41666643 C50.5333336,8.16666641 50.213891,8.04166641 49.8250002,8.04166641 C49.4361095,8.04166641 49.1166668,8.16666641 48.8666668,8.41666643 C48.6166668,8.66666641 48.4916668,8.97222108 48.4916668,9.33333308 Z M52.5333335,14 C53.8666748,14 54.9499949,13.5833376 55.7833336,12.75 L55.241667,12.25 C54.547219,12.9166693 53.6444509,13.25 52.5333335,13.25 C52.0333309,13.25 51.5611121,13.1666667 51.1166668,13 C50.6722187,12.8333334 50.3527787,12.6666667 50.1583333,12.5 L49.8666667,12.25 L49.325,12.75 C50.1583387,13.5833376 51.2277706,14 52.5333335,14 Z M54.3666664,10.2916664 C54.644445,10.5416664 54.9638876,10.6666664 55.3249996,10.6666664 C55.6861115,10.6666664 55.9986102,10.5416664 56.2625008,10.2916664 C56.5263888,10.0416664 56.6583328,9.72222369 56.6583328,9.33333308 C56.6583328,8.97222108 56.5333328,8.66666641 56.2833329,8.41666643 C56.0333329,8.16666641 55.7138903,8.04166641 55.3249996,8.04166641 C54.936109,8.04166641 54.6166664,8.16666641 54.3666664,8.41666643 C54.1166664,8.66666641 53.9916664,8.97222108 53.9916664,9.33333308 C53.9916664,9.72222369 54.1166664,10.0416664 54.3666664,10.2916664 Z M60.4916666,8.66666718 C60.7972239,8.44444312 60.95,8.1388911 60.95,7.75000038 C60.95,7.47222169 60.8527786,7.22916833 60.6583332,7.02083231 C60.4638878,6.81249893 60.2138905,6.70833359 59.908333,6.70833359 C59.686109,6.70833359 59.4777782,6.77777626 59.2833328,6.91666695 C59.866669,7.41666967 60.2694425,7.9999977 60.4916666,8.66666718 Z" id="reddit-logo"></path>
            </g>
        </g>
    </g>
</svg>