<svg width="20" height="16" xmlns="http://www.w3.org/2000/svg">
    <title>VIGOR on Telegram</title>
    <path d="M10.144899 12.5232152c-.35745796.3574596-.71863633.7111906-1.08354371 1.0612034-.36490737.3500125-.72608289.7037435-1.0835437 1.0612031-.13404673.1191534-.27181674.2122403-.41331004.2792642-.14149615.0670237-.30160586.1005349-.48033484.1005349-.1191536-.0148943-.21596465-.0484055-.29043315-.1005349-.07447136-.0521297-.13404673-.1377697-.17872898-.256923-.26809632-.848967-.53991021-1.7016446-.8154531-2.5580578-.27554002-.8564149-.55480333-1.7090922-.83779278-2.5580606-.02978626-.0893645-.06329866-.1563864-.10053434-.2010687-.03723568-.0446822-.10053433-.0819179-.18989882-.1117042-.65534339-.1936249-1.30322878-.3909703-1.94367761-.5920418-.64044884-.2010716-1.2883348-.4058606-1.94367762-.6143816-.08936506-.0297863-.17500512-.0595754-.25692304-.0893645-.08191772-.0297862-.16011085-.0670219-.23458164-.1117042-.17872986-.1042604-.27554043-.234581-.29043459-.3909703-.01489415-.1563893.05212856-.2941565.2010701-.4133101.11915326-.1042604.24575169-.1936221.37979908-.2680934.1340473-.0744714.26809289-.1340468.4021402-.178729.81917866-.3276717 1.63834474-.6478911 2.45752198-.9606697.81917924-.3127757 1.63834704-.6255485 2.45752628-.9383242.98301223-.38725 1.9697363-.770768 2.96019795-1.1505685.99046165-.3798005 1.98090617-.7595982 2.97136777-1.1393987.9904617-.3798005 1.980909-.7633186 2.9713707-1.1505685.9904616-.387247 1.9771828-.7670418 2.9601979-1.1393958.3872471-.1489427.7074665-.1340467.9606668.0446823.2532032.1787289.3649074.4766087.3351183.8936449-.0297891.2680934-.0744714.5324607-.1340467.7931105-.0595754.2606469-.1191536.5250142-.178729.7931105-.2085181 1.0276945-.4244799 2.0591008-.647894 3.0942447-.2234112 1.0351439-.4430963 2.0702707-.6590609 3.1054145-.2159647 1.0351439-.4356526 2.0702735-.6590638 3.1054174-.2234113 1.0351431-.4468225 2.066548-.6702337 3.0942447v.0446823c-.1042605.4766129-.3127729.7707681-.6255514.8824743-.3127786.111706-.6627843.026066-1.0500342-.2569229-.6851296-.5064013-1.3665274-1.0090715-2.0442105-1.5080259-.6776859-.4989541-1.3590809-1.0016244-2.0442134-1.508027-.0297891-.0297863-.0595753-.0558521-.0893645-.0781918-.0297891-.0223426-.0670219-.0484055-.111707-.0781946zm-3.03839259 1.2734439c.01489598 0 .02606583-.0037236.03351239-.0111707.00744657-.0074469.01117271-.0111704.01117271-.0111704 0-.0148943.00372328-.0335116.01116985-.0558527.00744656-.0223414.01116984-.0409587.01116984-.0558529.04468225-.4617187.08936449-.927153.13404673-1.3963209.04468225-.469165.08191793-.9346009.11170704-1.3963194.01489313-.1042605.04467939-.2010686.08936449-.2904331.04468225-.0893674.10425762-.1712824.17872898-.2457538.61065828-.5510829 1.21758757-1.0984368 1.82079929-1.6420732.60321457-.5436363 1.20641777-1.0872641 1.80963227-1.6309005.6032118-.5436363 1.2064178-1.0872669 1.8096295-1.6309033.6032146-.5436363 1.210141-1.0835408 1.8208022-1.6197306.1042604-.1042605.2159646-.2085153.3351182-.3127757.1191508-.1042605.2308549-.2085153.3351154-.3127757.0297891-.0297892.0484055-.067022.0558521-.1117042.0074466-.0446851.0186193-.0893645.0335124-.1340496-.0446822 0-.0856412-.0111699-.1228769-.0335095-.0372357-.0223426-.0781918-.0335124-.122874-.0335124-.0744714.0148931-.1489427.0372356-.2234141.0670219-.0744685.0297891-.1489399.0670248-.2234084.111707-.1638358.0893645-.3239455.1861756-.4803348.290436-.1563893.1042577-.3090524.2010687-.4579951.2904332-.7000228.4468253-1.3963166.8861955-2.0888928 1.3181276-.6925791.4319293-1.3851467.8675762-2.07772577 1.3069549-.69257621.4393759-1.3851467.8750257-2.07772292 1.306955-.69257907.4319293-1.38142342.8713023-2.06655592 1.3181276-.08936449.0446822-.14521658.096811-.16755627.1563864-.02234256.0595754-.01117165.1340468.03351239.2234112.08936449.2680935.17872612.5436335.26809347.8266201.08936449.2829895.17872611.5585295.26809346.826623.16383299.4915075.3239427.9755599.48033198 1.4521743.15638928.4766116.30905243.9532174.45799229 1.4298304z" fill="#4468CC" fill-rule="evenodd"/>
</svg>
