<?xml version="1.0" encoding="UTF-8"?>
<svg width="20px" height="16px" viewBox="0 0 20 16" version="1.1" xmlns="http://www.w3.org/2000/svg" xmlns:xlink="http://www.w3.org/1999/xlink">
    <title>telegram-logo</title>
    <g id="App" stroke="none" stroke-width="1" fill="none" fill-rule="evenodd">
        <g id="rewards-copy" transform="translate(-1303.000000, -1072.000000)" fill="#5981F0">
            <g id="Group-11" transform="translate(1179.000000, 1072.000000)">
                <path d="M134.144899,12.5232153 C133.787441,12.8806744 133.426262,13.2344055 133.061355,13.5844183 C132.696448,13.9344311 132.335272,14.2881622 131.977812,14.6456213 C131.843765,14.7647753 131.705995,14.8578615 131.564501,14.9248857 C131.423005,14.99191 131.262895,15.0254211 131.084167,15.0254211 C130.965013,15.0105267 130.868202,14.9770155 130.793733,14.9248857 C130.719262,14.872756 130.659687,14.7871161 130.615005,14.667963 C130.346908,13.8189955 130.075094,12.9663181 129.799551,12.1099052 C129.524011,11.2534904 129.244748,10.4008131 128.961759,9.5518446 C128.931972,9.46247959 128.89846,9.39545822 128.861224,9.35077572 C128.823989,9.30609322 128.76069,9.26885796 128.671326,9.23907185 C128.015982,9.0454464 127.368097,8.84810162 126.727648,8.64702988 C126.087199,8.44595814 125.439313,8.24116898 124.78397,8.03264809 C124.694605,8.00286198 124.608965,7.97307301 124.527047,7.94328356 C124.44513,7.91349745 124.366936,7.87626171 124.292466,7.83157969 C124.113736,7.72731924 124.016925,7.59699869 124.002031,7.44060898 C123.987137,7.28421974 124.05416,7.1464529 124.203101,7.02729893 C124.322254,6.92303848 124.448853,6.83367682 124.5829,6.75920582 C124.716948,6.68473434 124.850993,6.62515879 124.98504,6.58047676 C125.804219,6.25280523 126.623385,5.93258572 127.442562,5.61980724 C128.261742,5.30703115 129.080909,4.9942584 129.900089,4.68148279 C130.883101,4.29423285 131.869825,3.91071486 132.860286,3.53091431 C133.850749,3.15111375 134.841192,2.77131605 135.831654,2.39151573 C136.822115,2.01171517 137.812564,1.62819707 138.803025,1.24094713 C139.793487,0.853700042 140.780208,0.473905265 141.763222,0.101551332 C142.15047,-0.0473913923 142.47069,-0.0324954055 142.723889,0.146233574 C142.977092,0.324962556 143.088796,0.622842252 143.059007,1.03987849 C143.029218,1.30797195 142.984536,1.5723393 142.924961,1.83298898 C142.865385,2.0936358 142.805808,2.35800314 142.746232,2.62609959 C142.537714,3.65379405 142.321752,4.68520021 142.098338,5.72034407 C141.874927,6.75548792 141.655242,7.79061508 141.439277,8.82575893 C141.223313,9.86090279 141.003624,10.8960323 140.780214,11.9311762 C140.556803,12.9663191 140.333391,13.9977236 140.10998,15.0254211 C140.10998,15.0403147 140.10998,15.0514851 140.10998,15.0589323 C140.10998,15.0663795 140.10998,15.0701027 140.10998,15.0701027 C140.005719,15.5467157 139.797207,15.8408709 139.484428,15.9525776 C139.17165,16.0642834 138.821644,15.9786434 138.434395,15.6956549 C137.749264,15.1892529 137.067867,14.6865826 136.390184,14.1876287 C135.712498,13.6886749 135.031103,13.1860046 134.34597,12.6796017 C134.316182,12.6498156 134.286395,12.6237497 134.256606,12.6014099 C134.226817,12.5790672 134.189583,12.5530043 134.144899,12.5232153 Z M131.106506,13.7966581 C131.121402,13.7966581 131.132572,13.7929347 131.140019,13.7854873 C131.147465,13.7780406 131.151192,13.7743172 131.151192,13.7743172 C131.151192,13.759423 131.154915,13.7408054 131.162362,13.7184644 C131.169808,13.6961228 131.173531,13.6775059 131.173531,13.6626117 C131.218214,13.2008929 131.262896,12.7354586 131.307578,12.2662905 C131.35226,11.7971256 131.389496,11.33169 131.419285,10.8699713 C131.434178,10.7657113 131.463964,10.6689026 131.50865,10.5795381 C131.553332,10.4901709 131.612907,10.4082558 131.687379,10.3337848 C132.298037,9.78270155 132.904966,9.23534753 133.508178,8.69171169 C134.111392,8.1480752 134.714596,7.6044475 135.31781,7.06081101 C135.921022,6.51717484 136.524228,5.97354421 137.12744,5.42990788 C137.730655,4.88627155 138.337581,4.34636724 138.948242,3.81017744 C139.052503,3.70591693 139.164207,3.60166221 139.28336,3.49740174 C139.402511,3.39314128 139.514215,3.28888655 139.618476,3.18462607 C139.648265,3.15483697 139.666882,3.11760415 139.674328,3.07292191 C139.681775,3.02823681 139.692947,2.98355743 139.70784,2.93887232 C139.663158,2.93887232 139.622199,2.92770248 139.584963,2.90536279 C139.547728,2.88302024 139.506772,2.8718504 139.46209,2.8718504 C139.387618,2.88674352 139.313147,2.90908607 139.238675,2.93887232 C139.164207,2.96866144 139.089735,3.00589711 139.015267,3.05057935 C138.851431,3.13994383 138.691321,3.23675488 138.534932,3.34101534 C138.378543,3.44527296 138.22588,3.542084 138.076937,3.63144848 C137.376914,4.07827376 136.68062,4.51764381 135.988044,4.94957595 C135.295465,5.38150533 134.602897,5.81715223 133.910318,6.25653066 C133.217742,6.69590681 132.525172,7.13155632 131.832595,7.56348569 C131.140016,7.99541475 130.451172,8.43478764 129.766039,8.88161284 C129.676675,8.92629542 129.620823,8.97842413 129.598483,9.03799961 C129.57614,9.09757509 129.587311,9.17204606 129.631995,9.26141058 C129.72136,9.52950414 129.810721,9.80504447 129.900089,10.0880309 C129.989453,10.37102 130.078815,10.6465603 130.168182,10.9146539 C130.332015,11.406161 130.492125,11.8902135 130.648514,12.3668278 C130.804903,12.8434394 130.957567,13.3200452 131.106506,13.7966581 Z" id="telegram-logo"></path>
            </g>
        </g>
    </g>
</svg>