<svg xmlns="http://www.w3.org/2000/svg" viewBox="0 0 343.7 343.7">
  <defs/>
  <circle cx="171.8" cy="171.8" r="171.8" fill="#50af95" fill-rule="evenodd" clip-rule="evenodd"/>
  <path fill="#fff" fill-rule="evenodd" d="M192.9 178.5c-1.2.1-7.4.5-21.2.5-11 0-18.8-.3-21.6-.5-42.5-1.9-74.2-9.3-74.2-18.1 0-8.9 31.7-16.2 74.2-18.1v28.9c2.8.2 10.7.7 21.7.7 13.2 0 19.8-.6 21-.7v-28.9c42.4 1.9 74.1 9.3 74.1 18.1s-31.6 16.3-74 18.1zm0-39.2v-25.9h59.2V74H90.9v39.5h59.2v25.9c-48.1 2.2-84.3 11.7-84.3 23.2s36.2 20.9 84.3 23.2v82.9h42.8v-82.9c48-2.2 84.1-11.7 84.1-23.1s-36.1-21.2-84.1-23.4zm0 0z" clip-rule="evenodd"/>
</svg>