<?xml version="1.0" encoding="UTF-8"?>
<svg width="20px" height="16px" viewBox="0 0 20 16" version="1.1" xmlns="http://www.w3.org/2000/svg" xmlns:xlink="http://www.w3.org/1999/xlink">
    <title>twitter-logo</title>
    <g id="App" stroke="none" stroke-width="1" fill="none" fill-rule="evenodd">
        <g id="rewards-copy" transform="translate(-1179.000000, -1072.000000)" fill="#5981F0">
            <g id="Group-11" transform="translate(1179.000000, 1072.000000)">
                <path d="M19.7,1.89999998 C19.066662,2.80000329 18.4000034,3.5 17.6999996,4 L17.6999996,4.5 C17.6999996,7.43334723 16.6583425,10.0833216 14.5750013,12.4499998 C12.4916577,14.816678 9.7000162,16 6.19999995,16 C3.93332173,16 1.86667588,15.4000063 0,14.1999998 C0.200000987,14.2333336 0.516664656,14.25 0.949999999,14.25 C2.81667595,14.25 4.5,13.6666727 6,12.5 C5.13332802,12.4666653 4.35000331,12.1916704 3.65000005,11.6750011 C2.94999651,11.15833 2.46666816,10.5 2.20000003,9.69999981 C2.5333349,9.76666546 2.78333245,9.80000019 2.95000003,9.80000019 C3.31666871,9.80000019 3.68333122,9.75 4.0499999,9.64999962 C3.11666203,9.48333073 2.34166982,9.02500439 1.72500007,8.27500153 C1.10833024,7.52499533 0.799999984,6.66667223 0.799999984,5.69999981 L0.799999984,5.5999999 C1.46667001,5.96666861 2.06666406,6.1500001 2.59999987,6.1500001 C1.4333274,5.34999657 0.849999964,4.21667528 0.849999964,2.75 C0.849999964,1.98332798 1.01666498,1.31666875 1.35000006,0.75 C3.51667832,3.38334727 6.29998406,4.78333139 9.69999976,4.94999981 C9.63333449,4.54999685 9.5999998,4.25 9.5999998,4.05000019 C9.5999998,2.91666245 9.99166392,1.958336 10.7750015,1.17500162 C11.5583357,0.391663998 12.5166625,0 13.6499997,0 C14.8500063,0 15.8333286,0.416662395 16.5999994,1.25 C17.5333379,1.04999995 18.3833285,0.733334422 19.1500005,0.300000012 C18.85,1.26667202 18.2666717,2 17.4000003,2.5 C18.1666723,2.4000001 18.933328,2.20000005 19.7,1.89999998 Z" id="twitter-logo"></path>
            </g>
        </g>
    </g>
</svg>