<svg width="12" height="17" viewBox="0 0 12 17" xmlns="http://www.w3.org/2000/svg" xmlns:xlink="http://www.w3.org/1999/xlink">
    <title>VIGOR Mark</title>
    <defs>
        <path d="M11.5805 17.1312l-2.545-7.563 2.547-3.92 2.509 3.92-2.511 7.563zm3.413-8.008l-3.21-5.016c-.046-.072-.121-.107-.196-.107-.075 0-.151.036-.196.108l-3.261 5.017c-.122.194-.152.431-.081.649l3.466 10.295c.01.036.042.053.072.053.03 0 .059-.017.071-.052l3.417-10.293c.072-.219.043-.459-.082-.654zm2.119 3.323l-1.413-2.176c-.034-.053-.089-.078-.143-.078-.07 0-.138.041-.163.117l-3.537 10.565 5.257-8.242c.036-.056.035-.129-.001-.186zm-9.528-2.299c-.055 0-.109.025-.144.078l-1.413 2.177c-.037.056-.037.128-.001.186l5.257 8.241-3.536-10.565c-.025-.076-.095-.117-.163-.117z" id="a"/>
    </defs>
    <use fill="#4468CC" xlink:href="#a" transform="translate(-6 -4)" fill-rule="evenodd"/>
</svg>
