<?xml version="1.0" encoding="utf-8"?>
<!-- Generator: Adobe Illustrator 23.0.4, SVG Export Plug-In . SVG Version: 6.00 Build 0)  -->
<svg version="1.1" id="Layer_1" xmlns="http://www.w3.org/2000/svg" xmlns:xlink="http://www.w3.org/1999/xlink" x="0" y="0"
	 viewBox="-12 0 77 77"  xml:space="preserve">
<style type="text/css">
	#vigor .st0{fill:#2F3347;}
	#vigor .st1{fill:#4468CC;}
	#vigor .st2{fill:#FFFFFF;}
</style>
<g id="vigor">
	<g>
		<path class="st2" d="M24.01,0.48L9.49,22.83c-0.54,0.86-0.68,1.92-0.36,2.89l15.43,45.86c0.1,0.31,0.54,0.31,0.64,0l15.22-45.85
			c0.32-0.98,0.19-2.05-0.36-2.92L25.76,0.48C25.35-0.16,24.42-0.16,24.01,0.48z"/>
		<path class="st1" d="M41.84,28.1L26.09,75.16L49.5,38.45c0.16-0.25,0.16-0.58,0-0.83l-6.29-9.69
			C42.86,27.39,42.04,27.5,41.84,28.1z"/>
		<path class="st1" d="M7.78,27.9l15.75,47.06L0.12,38.25c-0.16-0.25-0.16-0.58,0-0.83l6.29-9.69C6.77,27.19,7.58,27.3,7.78,27.9z"
			/>
	</g>
</g>
</svg>
